<svg width="169" height="232" viewBox="0 0 169 232" fill="none" xmlns="http://www.w3.org/2000/svg">
<path opacity="0.5" d="M0.712006 178.038C1.90996 175.477 3.30681 172.974 3.9854 170.21C4.66818 167.332 5.27131 164.417 5.42009 161.458C4.35832 163.217 3.73623 165.198 2.93204 167.081C2.50061 168.042 2.24083 169.098 1.6796 169.992C1.59166 170.032 1.4178 170.11 1.33189 170.149C1.75072 168.357 2.58433 166.694 3.11211 164.932C4.76656 160.319 4.66197 155.319 5.9709 150.628C6.4526 148.678 8.54688 147.577 8.7668 145.533C8.97629 143.246 8.68509 140.953 8.67249 138.664C8.48401 135.453 8.81287 132.24 8.66626 129.03C8.52588 125.484 8.59919 121.794 10.0569 118.496C11.4454 115.291 14.0884 112.883 16.7105 110.68C18.1262 109.457 19.6948 108.342 20.7294 106.755C21.8122 105.161 22.3985 103.234 23.7955 101.863C24.8448 100.74 26.3526 100.281 27.7411 99.7389C32.4616 98.0154 37.3037 96.652 42.0619 95.033C43.9677 94.3797 45.9364 93.7639 47.572 92.545C50.4685 90.4653 52.9962 87.9166 55.3441 85.2463C58.5253 82.1425 61.8448 79.1812 64.9652 76.0167C65.2877 75.6816 65.6228 75.3528 65.8616 74.9549C65.9369 74.2345 65.3107 73.5665 65.5579 72.8544C65.9725 72.3601 66.6469 72.2219 67.2271 72.0188C69.1079 71.4826 70.9927 70.9548 72.8189 70.2492C80.7165 67.667 88.6666 64.9233 95.7809 60.5441C99.4795 58.2886 102.629 55.2707 105.603 52.1522C111.945 45.4357 117.511 38.0471 123.168 30.761C127.357 25.6048 131.158 20.1512 134.974 14.7186C135.795 13.4768 136.345 11.9437 137.705 11.1688C138.967 10.4441 140.469 10.9761 141.822 10.6891C142.306 10.5865 142.67 10.1445 142.678 9.6524C142.812 7.5329 141.927 5.50772 141.912 3.39881C142.036 2.4396 142.465 1.5369 142.999 0.743284C143.292 0.347491 143.749 -0.169851 144.293 0.0542675C144.815 0.39356 145.112 0.967402 145.418 1.48895C146.092 2.7476 146.658 4.06493 147.141 5.40733C147.627 6.77493 147.606 8.2451 147.77 9.6692C147.898 11.0388 149.087 12.0964 150.337 12.4986C151.678 12.9552 152.97 12.1446 154.22 11.7655C154.641 11.6545 155.251 11.42 155.548 11.8765C155.952 12.6304 155.42 13.6609 156.028 14.3373C156.955 15.108 158.271 15.3468 159.014 16.3583C160.082 17.774 160.926 19.3427 161.86 20.8485C162.949 22.5846 163.944 24.4277 165.479 25.8246C166.589 26.9513 168.041 27.8728 168.608 29.4184C169.018 30.74 169.111 32.1703 168.866 33.5337C168.79 33.9169 168.66 34.43 168.2 34.5054C167.339 34.5494 166.604 33.9295 165.745 33.9065C164.964 33.8771 164.155 34.0258 163.397 33.7598C161.272 33.0436 159.154 32.2248 156.918 31.9274C154.825 31.6383 152.733 32.5619 150.654 32.0383C149.227 31.7347 148.14 30.6938 147.104 29.7388C146.547 29.2466 145.964 28.675 145.194 28.566C144.438 28.5283 143.724 28.9031 143.164 29.3848C141.958 30.455 140.928 31.7431 140.312 33.2467C135.482 43.7265 130.793 54.3197 124.737 64.1691C120.55 71.0196 115.245 77.0889 109.88 83.0304C105.823 87.4808 101.628 91.8013 97.496 96.1848C96.2792 97.5482 94.9389 98.8278 93.9252 100.359C92.9157 102.361 93.5775 104.644 93.9859 106.713C94.2581 108.635 95.1754 110.369 95.8939 112.148C96.7882 114.298 97.5463 116.609 97.32 118.969C96.9849 122.894 95.2508 126.487 93.9691 130.157C93.257 132.938 92.7209 135.795 92.7209 138.676C92.6958 140.291 93.1377 141.855 93.5669 143.397C94.9365 148.036 96.5681 152.593 98.2268 157.133C99.4602 160.377 100.541 163.705 102.283 166.723C103.025 168.147 103.94 169.5 104.43 171.042C104.956 172.715 104.265 174.451 104.531 176.152C105.079 180.311 105.775 184.447 106.403 188.596C107.289 194.043 108.135 199.499 109.132 204.929C109.513 207.097 110.47 209.097 111.266 211.133C111.7 212.348 111.452 213.521 111.906 214.758C112.113 215.319 112.365 215.862 112.574 216.423C112.795 217.018 112.844 217.606 112.995 218.209C113.232 219.158 113.823 220.282 114.576 220.913C115.875 222 117.198 223.059 118.368 224.317C119.177 225.188 119.972 226.127 120.968 226.827C121.211 226.999 121.195 227.25 121.157 227.495C121.114 227.772 120.887 227.795 120.667 227.81C120.482 227.823 120.298 227.836 120.113 227.84C118.049 227.889 115.985 227.881 113.923 227.79C113.041 227.751 112.153 227.748 111.314 227.331C110.158 226.754 108.882 226.77 107.625 226.744C107.502 226.742 107.378 226.744 107.255 226.739C105.838 226.677 105.321 225.928 105.779 224.592C105.838 224.419 105.946 224.264 106.012 224.093C106.088 223.893 106.186 223.687 106.196 223.48C106.234 222.676 106.563 222.015 107.044 221.382C107.989 220.138 107.149 218.503 106.371 217.413C105.513 216.214 104.075 215.288 103.793 213.778C102.413 206.383 101.45 198.919 100.118 191.518C99.7889 189.769 99.5083 188.005 98.9911 186.301C98.2142 183.783 97.2005 181.35 96.1345 178.943C95.5607 177.622 94.8821 176.344 94.4424 174.968C93.8644 173.044 92.8172 171.316 91.9397 169.521C89.6464 165.048 87.3636 160.57 85.0097 156.128C84.0569 154.289 83.0013 152.505 82.107 150.637C81.816 150.329 81.6924 150.899 81.5981 151.087C80.0022 155.332 78.909 159.739 77.6817 164.097C77.0116 166.763 76.1948 169.404 75.8576 172.139C75.5874 173.955 75.4639 175.785 75.3006 177.611C75.2503 178.261 75.0891 178.899 74.8377 179.503C74.088 181.235 74.0628 183.155 73.8115 185C72.8586 192.787 71.8994 200.575 71.1245 208.383C70.959 210.609 70.5905 212.863 70.9989 215.085C71.1782 216.362 71.3837 218.666 71.3838 218.666C71.4796 219.74 71.4719 220.823 71.6105 221.894C71.7228 222.76 71.909 224.013 72.4137 224.749C72.8838 225.434 73.4891 226.055 74.1351 226.583C75.0403 227.323 75.6792 228.291 76.4951 229.103C76.9661 229.573 77.1398 230.064 77.7216 230.461C77.8276 230.533 77.9726 230.608 77.8463 230.769C77.5783 231.111 77.2822 231.5 76.8258 231.481C75.8795 231.444 74.9909 231.775 74.0414 231.782C72.0502 231.797 70.0737 231.886 68.1184 231.354C66.5398 230.924 65.0149 230.393 63.6169 229.532C62.94 229.116 62.8521 228.307 63.4656 227.777C63.7099 227.566 63.8281 227.341 63.9072 227.047C64.0729 226.431 64.2714 225.824 64.4515 225.212C64.8347 223.91 65.083 222.608 64.6665 221.254C64.2749 219.981 64.1812 218.685 64.0164 217.374C63.842 215.985 63.6861 214.596 63.474 213.212C63.2333 211.642 63.1117 209.998 63.5682 208.454C63.9075 207.233 64.542 206.115 64.8102 204.871C65.25 202.904 65.4469 200.894 65.7862 198.909C66.4836 193.794 67.2502 188.682 67.6606 183.534C67.8847 180.78 67.3443 178.049 67.1873 175.308C67.0637 173.291 67.3381 171.283 67.6167 169.291C68.3894 164.296 69.3236 159.331 70.2764 154.367C70.8753 150.823 71.4555 147.276 72.0544 143.732C70.4166 142.275 68.1381 142.036 66.0438 141.898C64.4981 141.981 62.9987 142.425 61.4865 142.735C58.1084 143.441 54.6507 144.162 51.1826 143.774C47.8966 143.294 44.9646 141.64 41.9426 140.369C41.2221 140.096 40.4766 139.793 39.6933 139.803C38.9792 139.858 38.5812 140.586 38.445 141.217C38.066 143.192 38.4534 145.253 37.8858 147.202C36.9224 150.472 35.4565 153.561 34.3465 156.78C33.4898 159.255 32.4721 161.67 31.6531 164.16C30.2771 168.468 29.542 172.952 29.0184 177.434C28.5095 182.382 28.4404 187.4 29.1358 192.335C29.7619 197.788 30.4866 203.233 31.4919 208.632C31.9589 211.072 32.4511 213.598 33.7746 215.743C34.1058 216.235 34.3524 216.785 34.579 217.332C34.8048 217.877 34.9254 218.39 35.3156 218.85C36.1442 219.826 36.8869 220.94 37.9933 221.629C38.5636 221.985 39.1403 222.383 39.4219 223.027C39.8817 224.079 40.5099 225.018 41.2276 225.903C41.4982 226.237 41.7829 226.559 42.0659 226.883C42.2416 227.084 42.3295 227.308 42.2139 227.56C42.0987 227.811 41.8558 227.747 41.6492 227.735C41.4034 227.722 41.1588 227.687 40.9135 227.663C40.0857 227.581 39.2555 227.414 38.4306 227.436C36.4922 227.49 34.5652 227.403 32.6367 227.228C31.6612 227.139 31.042 226.514 30.405 225.893C30.2636 225.755 30.2335 225.575 30.2442 225.381C30.2733 224.86 30.2549 224.332 30.3282 223.817C30.488 222.693 30.4024 221.418 29.8089 220.436C29.4026 219.764 28.9202 219.138 28.374 218.574C28.1141 218.305 27.8231 218.065 27.5822 217.785C27.2897 217.445 26.9639 217.129 26.654 216.804C25.9897 216.11 25.3264 215.32 25.1547 214.343C24.8342 212.718 25.3201 211.083 25.2761 209.453C25.2258 206.653 25.0478 203.859 24.9222 201.065C24.541 196.19 24.9745 191.258 24.1054 186.424C23.3829 182.556 22.2184 178.786 20.9618 175.065C19.7219 177.276 18.4989 179.548 17.8978 182.03C16.7878 186.499 16.0527 191.053 15.2423 195.585C14.189 202.286 13.1941 208.999 12.3857 215.734C12.1352 216.793 12.9323 217.66 13.0618 218.666H13.0476C13.2268 219.744 13.5746 220.708 13.6025 221.809C13.6144 222.278 13.7117 222.666 13.9018 223.04C14.4875 224.194 14.7157 225.47 15.1902 226.661C15.2938 226.921 15.2228 227.172 15.1647 227.431C15.1186 227.637 15.138 227.903 14.9604 228.056C14.888 228.118 14.7948 228.149 14.7038 228.178C14.1797 228.342 13.5082 228.586 12.9597 228.432C11.6915 228.078 10.3174 227.994 9.22141 227.13C9.1113 227.043 8.95064 227.012 8.80823 226.976C7.83859 226.733 7.03252 226.136 6.13315 225.741C5.91178 225.644 5.71808 225.475 5.52641 225.321C5.19132 225.052 5.14236 224.805 5.28549 224.373C5.41008 223.997 5.56756 223.622 5.61899 223.235C5.6991 222.631 6.00523 222.217 6.543 222.002C6.89562 221.861 7.05019 221.619 7.10176 221.287C7.15812 220.923 7.23419 220.534 7.36906 220.191C7.50104 219.855 7.69836 219.534 7.72545 219.166C7.74703 218.874 7.65517 218.593 7.56506 218.319C7.47437 218.043 7.42614 217.759 7.34081 217.485C7.08945 216.404 5.49048 214.085 6.43404 211.175C7.19216 208.928 7.56709 206.578 7.91681 204.238C8.64146 199.428 9.21112 194.594 9.88753 189.777C10.3232 186.28 10.8215 182.787 11.0436 179.266C11.2383 177.375 11.031 175.475 10.7797 173.599C10.4027 170.983 10.2498 168.225 11.1922 165.703C13.1986 159.957 16.3254 154.497 16.9599 148.352C17.3537 143.051 15.8918 137.87 14.7505 132.75C14.0783 129.973 14.7924 127.11 14.4573 124.305C13.32 125.038 12.7567 126.339 12.141 127.491C11.0855 129.447 10.9453 131.705 10.6793 133.866C10.3169 137.338 9.97344 140.821 9.98807 144.314C9.9462 146.536 11.854 148.344 11.4478 150.608C11.1316 152.807 9.20476 154.22 8.39014 156.197C7.66765 157.869 6.95761 159.632 7.02469 161.49C7.10017 164.401 7.47293 167.35 6.92212 170.24C6.30438 172.981 4.55983 175.291 2.79224 177.411C2.07178 178.163 1.43507 179.128 0.373291 179.415C0.393573 178.933 0.50672 178.468 0.712006 178.038Z" fill="white"/>
</svg>
