<svg width="227" height="168" viewBox="0 0 227 168" fill="none" xmlns="http://www.w3.org/2000/svg">
<path opacity="0.5" fill-rule="evenodd" clip-rule="evenodd" d="M190.834 0.00642047C193.472 0.180704 193.764 3.84521 196.356 4.32588C197.739 4.58282 198.853 3.7866 200.14 4.13654C201.865 4.60583 203.47 6.36596 203.948 8.18046C204.023 8.1574 204.097 8.13433 204.143 8.18046C204.19 8.2269 204.097 8.33105 204.143 8.3775C204.236 8.47038 204.445 8.28461 204.538 8.3775C204.584 8.42393 204.491 8.52809 204.538 8.57453C204.63 8.66742 204.839 8.48165 204.932 8.57453C204.978 8.62097 204.885 8.72513 204.932 8.77157C205.001 8.84073 205.781 8.70352 205.917 8.77157C206 8.81311 206.031 8.92708 206.114 8.96861C206.121 8.97232 206.131 8.96956 206.139 8.97169C205.9 8.75185 205.707 8.48725 205.626 8.10964C207.309 8.50766 209.099 10.4359 209.787 12.4599C209.337 13.6603 209.665 14.0974 209.976 15.2969C208.817 17.4336 205.814 16.5608 204.113 18.1355C205.462 19.6858 207.598 20.4504 208.842 22.1071C210.36 27.1458 215.212 28.8512 219.245 31.3756C220.697 33.5021 223.47 34.1063 223.406 36.6726C223.348 38.9772 219.782 41.8314 221.137 44.0492C222.498 43.6804 223.904 43.3253 224.729 42.9147V43.8599C223.391 43.9702 220.579 43.9079 220.758 46.1305H223.406C223.413 45.8704 223.316 45.7145 223.216 45.5624C223.944 46.6004 226.68 45.6301 227 47.0756C225.527 47.0725 222.795 45.9482 220.569 46.6969C220.212 48.1692 219.589 49.3757 218.866 50.4807C219.459 50.3917 219.367 50.9904 219.813 51.0487C220.71 55.6555 218.502 58.6519 216.597 61.0731C216.13 61.0983 215.685 61.1013 215.461 60.8838C215.499 61.4252 215.486 61.9172 214.894 61.8305C214.154 61.6445 215.026 61.0183 214.516 60.6959C214.678 61.488 213.67 61.1089 213.381 61.4518C213.085 61.1807 213.232 60.4664 212.624 60.5066C212.606 60.8037 212.649 61.1614 212.245 61.0731C211.741 59.2375 210.679 58.3674 209.029 58.8041C211.209 59.567 210.606 62.7986 209.029 63.7223C209.643 65.6478 208.779 68.433 207.327 68.2619C208.137 67.3524 207.671 64.97 207.327 63.7223C206.711 68.2763 205.495 72.2291 202.221 74.1254C203.263 74.5967 204.209 75.1643 205.058 75.8279C204.242 76.7915 202.22 75.852 201.483 75.674C201.474 75.7419 201.458 75.8128 201.483 75.8633C201.504 75.9049 201.561 75.9203 201.582 75.9618C201.597 75.9912 201.582 76.0275 201.582 76.0604V76.1558C203.137 78.775 204.715 81.9478 203.734 85.6645C202.959 88.5988 200.376 91.4622 199.194 93.6091C199.377 91.333 200.173 89.6681 200.708 87.7441C198.971 90.1063 198.997 94.2292 196.357 95.6888C197.018 93.7011 198.116 92.1524 198.816 90.2041H197.871C199.565 88.3373 200.46 84.7444 199.328 81.873C199.325 81.8722 199.319 81.8762 199.316 81.873C199.308 81.8651 199.316 81.8505 199.316 81.8391C199.308 81.8178 199.302 81.7956 199.293 81.7745C199.266 81.78 199.235 81.7923 199.218 81.7745C199.194 81.7512 199.232 81.7054 199.218 81.676C199.158 81.5578 198.981 81.4986 198.922 81.3804C198.907 81.351 198.937 81.3113 198.922 81.2819C198.902 81.2426 198.786 81.1398 198.702 81.0618C199.209 84.3973 199.135 88.8923 197.113 90.5827C196.272 94.1736 195.362 98.3088 193.71 100.609C193.469 100.943 193.704 101.989 192.763 101.364C194.29 98.2907 193.936 92.6022 192.574 89.2589C192.38 90.0725 192.218 90.8204 192.081 91.5141C192.033 91.2982 191.984 91.0806 191.927 90.8568C191.926 90.8512 191.929 90.8438 191.927 90.8383C191.926 90.8359 191.922 90.8344 191.921 90.832C191.887 90.6971 191.866 90.5741 191.829 90.4364C191.828 90.4763 191.829 90.4901 191.829 90.5272C191.837 90.606 191.84 90.6802 191.847 90.7581C191.87 90.7835 191.906 90.8017 191.921 90.832C191.923 90.8404 191.925 90.8482 191.927 90.8566C191.964 91.0023 191.88 91.1885 191.927 91.3308C191.942 91.3748 192.005 91.3877 192.026 91.4293C192.04 91.4587 192.026 91.4949 192.026 91.5278V91.7248V91.8187C191.698 93.5393 191.543 94.8622 191.495 95.8642C190.678 99.1955 188.888 101.727 187.845 104.959C187.54 105.904 187.178 106.882 186.521 107.797C187.931 101.602 188.085 100.592 188.085 100.592C187.356 102.283 186.766 104.551 186.335 106.284C185.582 105.902 186.23 104.118 185.388 103.826C185.286 105.426 185.077 106.918 184.064 107.608C184.186 106.645 184.976 104.697 183.875 104.204C184.461 107.43 183.29 110.049 181.416 111.392C181.899 109.352 183.628 107.552 183.119 105.15C182.259 105.54 182.504 108.663 181.416 107.608C180.809 109.144 179.96 110.44 178.769 111.392C178.233 111.094 179.196 110.379 178.579 110.068C176.607 112.029 176.063 115.554 177.255 118.768C176.049 118.208 175.96 116.533 175.553 115.174C175.186 117.453 176.935 118.558 176.877 119.903C175.966 120.174 176.038 118.485 175.553 118.958C175.623 119.96 176.365 120.288 176.309 121.416C174.781 120.548 174.978 117.956 173.661 116.877C173.033 118.38 175.708 120.128 174.229 121.228C174.264 120.059 173.955 119.231 173.472 118.579C172.939 121.338 172.7 124.126 172.526 126.713C172.377 128.94 171.819 131.195 171.58 133.523C171.283 136.417 172.007 139.733 171.769 142.792C171.425 147.222 169.61 150.526 171.958 153.763C172.791 152.804 173.684 153.079 174.985 152.628C175.54 152.935 176.335 153.211 175.93 153.952C175.876 153.969 175.842 153.964 175.799 153.969C175.791 154.009 175.785 154.05 175.77 154.088C175.761 154.109 175.731 154.116 175.721 154.137C175.717 154.143 175.72 154.216 175.721 154.285C175.751 154.275 175.777 154.255 175.807 154.242C176.128 154.047 176.441 153.844 176.684 153.572C176.96 153.552 177.222 153.546 177.472 153.552C178.886 153.586 179.9 154.018 180.687 154.679C180.69 154.679 180.693 154.677 180.696 154.679C180.778 154.76 180.765 154.754 180.751 154.737C180.737 154.72 180.722 154.692 180.794 154.728C180.853 154.758 180.883 154.846 180.942 154.876C180.957 154.883 180.98 154.864 180.991 154.876C181.011 154.896 180.986 154.935 180.991 154.96C180.996 154.965 181.002 154.969 181.007 154.974C181.019 154.972 181.033 154.966 181.041 154.974C181.043 154.977 181.04 154.999 181.041 155.007C182.119 156.097 182.746 157.638 183.494 159.058C186.827 159.493 184.832 165.643 181.792 164.732C181.645 166.036 180.328 166.169 179.9 167.191C178.356 166.804 176.627 166.385 174.792 166.814C174.669 166.384 174.77 166.177 174.899 165.999C174.896 166.002 174.894 166.004 174.891 166.006C174.88 166.011 174.803 166.006 174.788 166.006H174.543H174.3C174.288 166.006 174.273 166.014 174.264 166.006C174.256 165.997 174.273 165.98 174.264 165.972C174.256 165.964 174.241 165.972 174.229 165.972C174.196 165.972 174.075 165.978 174.055 165.972C174.039 165.966 174.036 165.944 174.021 165.936C174 165.926 173.967 165.953 173.95 165.936C173.942 165.928 173.959 165.909 173.95 165.901C173.939 165.889 173.893 165.913 173.881 165.901C173.873 165.893 173.889 165.875 173.881 165.867C173.873 165.859 173.855 165.875 173.847 165.867C173.839 165.859 173.855 165.84 173.847 165.832C173.836 165.82 173.788 165.843 173.776 165.832C173.768 165.823 173.776 165.809 173.776 165.798C173.765 165.798 173.753 165.803 173.743 165.798C173.728 165.791 173.722 165.77 173.707 165.762C173.699 165.758 173.658 165.761 173.629 165.762C173.432 166.529 171.977 166.693 171.577 166.624C171.581 166.602 171.59 166.584 171.595 166.563H171.583H171.547C171.536 166.563 171.522 166.571 171.514 166.563C171.505 166.555 171.522 166.537 171.514 166.529C171.505 166.521 171.486 166.537 171.478 166.529C171.47 166.521 171.486 166.502 171.478 166.494C171.47 166.485 171.453 166.499 171.443 166.494C171.428 166.486 171.424 166.467 171.409 166.46C171.395 166.453 171.311 166.467 171.304 166.46C171.296 166.451 171.312 166.432 171.304 166.424C171.296 166.416 171.277 166.432 171.269 166.424C171.261 166.416 171.277 166.397 171.269 166.389C171.261 166.381 171.243 166.397 171.235 166.389C171.227 166.381 171.243 166.363 171.235 166.355C171.218 166.339 171.181 166.371 171.164 166.355C171.156 166.347 171.172 166.328 171.164 166.32C171.156 166.311 171.138 166.328 171.13 166.32C171.122 166.311 171.138 166.292 171.13 166.284C171.122 166.276 171.103 166.292 171.095 166.284C171.087 166.276 171.103 166.259 171.095 166.25C171.087 166.242 171.068 166.259 171.059 166.25C171.043 166.234 171.076 166.196 171.059 166.179C171.051 166.171 171.034 166.188 171.026 166.179C171.017 166.171 171.034 166.154 171.026 166.146C171.017 166.137 170.998 166.154 170.99 166.146C170.981 166.136 171 166.024 170.99 166.006C170.983 165.991 170.964 165.986 170.956 165.972C170.951 165.961 170.956 165.948 170.956 165.936V165.901V165.693V165.525C170.841 165.415 170.703 165.313 170.445 165.305C170.368 165.761 170.791 165.716 170.635 166.25C168.645 166.303 167.229 165.274 164.959 165.682C164.358 164.707 162.968 164.521 162.311 163.601C162.557 160.733 161.308 159.361 160.875 157.173C160.873 157.17 160.87 157.169 160.869 157.166C160.865 157.158 160.866 157.15 160.869 157.14C160.867 157.132 160.866 157.125 160.864 157.117C160.858 157.117 160.849 157.122 160.844 157.117C160.838 157.112 160.844 157.101 160.844 157.092V157.019C160.982 156.704 160.777 156.9 160.609 156.601C158.849 153.552 158.24 149.914 158.15 145.82C158.142 145.423 158.564 144.941 158.527 144.494C158.428 143.278 157.405 141.297 157.014 139.578C156.043 135.307 155.265 130.065 154.745 125.391C153.64 122.965 152.036 121.037 150.961 118.581C150.98 119.164 151.609 120.498 150.584 120.472C150.444 119.604 150.517 118.522 150.206 117.823C148.296 120.132 151.271 120.73 151.908 122.931C152.932 126.466 153.373 128.955 150.772 131.631C150.233 131.59 150.868 131.156 150.778 130.965C150.743 130.984 150.68 130.934 150.649 130.965C150.616 130.998 150.682 131.072 150.649 131.105C150.616 131.138 150.55 131.084 150.509 131.105C150.507 131.106 150.507 131.107 150.506 131.108C150.343 131.598 150.238 132.145 150.206 132.766C146.033 134.962 142.234 137.534 138.666 140.333C138.648 140.036 138.691 139.677 138.288 139.765C135.086 140.472 128.924 140.475 127.127 139.197C127.225 139.17 127.331 139.155 127.434 139.134C127.427 139.129 127.419 139.123 127.415 139.116C127.41 139.105 127.421 139.092 127.415 139.082C127.408 139.067 127.387 139.061 127.38 139.047C127.374 139.036 127.384 139.024 127.38 139.013C127.372 138.988 127.354 138.967 127.346 138.942C127.342 138.931 127.352 138.918 127.346 138.908C127.339 138.893 127.318 138.887 127.311 138.873C127.303 138.857 127.307 138.836 127.311 138.816C127.186 138.816 127.068 138.824 126.935 138.817C125.174 137.091 122.791 135.577 122.206 132.198C122.31 132.193 122.372 132.147 122.434 132.101C122.433 132.075 122.429 132.019 122.434 132.01C122.441 131.995 122.462 131.989 122.469 131.975C122.48 131.954 122.453 131.922 122.469 131.905C122.477 131.897 122.495 131.914 122.503 131.905C122.511 131.897 122.498 131.882 122.503 131.872C122.51 131.857 122.531 131.851 122.539 131.836C122.548 131.818 122.529 131.785 122.539 131.767C122.546 131.752 122.567 131.746 122.574 131.731C122.586 131.707 122.562 131.57 122.574 131.558C122.582 131.549 122.6 131.566 122.608 131.558C122.625 131.54 122.59 131.47 122.608 131.453C122.616 131.445 122.635 131.461 122.643 131.453C122.66 131.436 122.627 131.4 122.643 131.384C122.651 131.375 122.669 131.392 122.677 131.384C122.679 131.382 122.677 131.367 122.677 131.361C122.586 131.388 122.529 131.402 122.399 131.444C122.756 130.539 122.83 129.354 123.912 129.175C124.136 129.796 125.076 129.494 125.237 128.985C124.912 128.995 124.752 128.84 124.669 128.607C126.059 126.584 131.231 126.747 133.37 128.039C134.739 127.579 135.632 126.643 137.721 126.904C140.44 122.575 131.663 118.62 130.911 114.988C131.064 114.98 131.205 114.962 131.338 114.934C131.339 114.915 131.338 114.896 131.338 114.877C131.305 114.877 131.262 114.9 131.239 114.877C131.216 114.854 131.262 114.802 131.239 114.778C131.193 114.732 131.101 114.808 131.042 114.778C131.023 114.769 130.951 114.688 130.897 114.634C128.347 115.299 124.558 112.889 121.07 113.473C120.744 113.359 121.085 112.577 120.691 112.528C118.729 113.343 115.963 112.567 114.26 111.96C114.391 111.588 115.315 112.006 115.394 111.581C114.634 111.451 114.314 111.762 113.692 111.77C111.509 109.795 106.937 110.065 104.045 109.689C103.989 110.201 104.835 110.771 104.234 111.202C104.006 110.48 103.205 109.338 102.531 109.689C102.689 110.163 103.052 110.433 103.101 111.015C102.841 114.601 101.84 117.446 100.452 119.904C100.099 119.93 99.8205 120.028 99.6959 120.282C98.0936 126.056 95.7294 131.07 89.67 132.387C87.8391 136.295 84.11 138.304 80.5893 140.521C80.6855 142.32 78.897 142.232 78.1309 143.169C77.7731 147.811 77.9274 154.207 83.4279 154.14C83.8527 153.682 84.2938 153.241 84.7518 152.816C86.2209 152.797 87.3241 153.145 88.5355 153.384C88.716 153.736 87.9688 154.015 88.5355 154.14C91.3051 152.703 94.8879 155.618 93.8309 158.492C94.8642 158.928 95.4358 159.986 94.7776 161.139C95.3231 161.414 96.1425 161.413 96.1015 162.274C95.7051 162.734 95.261 162.107 94.967 162.463C94.8732 163.756 93.6177 163.886 92.698 164.354C92.2534 164.294 92.5845 163.458 91.9406 163.598C92.3363 164.016 92.0886 164.858 91.7513 165.111C91.2012 165.124 90.6882 165.1 90.4243 164.826C90.4007 164.825 90.3747 164.816 90.3535 164.826C90.312 164.847 90.2966 164.904 90.255 164.925C90.1963 164.954 90.1044 164.878 90.058 164.925C90.0347 164.948 90.0812 165 90.058 165.023C90.0437 165.038 89.9518 165.03 89.8579 165.023C90.0809 165.151 90.233 165.393 90.2381 165.867C89.0782 165.98 85.8935 166.781 84.3854 165.122C84.3765 165.122 84.3635 165.122 84.3515 165.122C83.9741 165.24 83.7564 165.644 83.4294 165.3C83.4494 165.153 83.4855 165.037 83.5233 164.925H83.4571H82.9645C82.9404 164.925 82.9153 164.927 82.8922 164.925C82.882 164.985 82.8687 165.036 82.8614 165.111C80.4937 165.02 78.3148 164.74 76.0527 164.543C75.9655 164.361 75.8575 164.2 75.7495 164.038C75.6756 164.038 75.5771 164.04 75.5755 164.038C75.5523 164.015 75.5988 163.963 75.5755 163.94C75.5427 163.907 75.4113 163.972 75.3785 163.94C75.3553 163.916 75.4017 163.864 75.3785 163.841C75.3553 163.818 75.3094 163.856 75.28 163.841C74.87 163.636 75.3853 163.848 75.1815 163.644C75.1582 163.621 75.1062 163.667 75.0829 163.644C75.0597 163.621 75.1062 163.569 75.0829 163.546C75.0597 163.522 75.0077 163.569 74.9844 163.546C74.938 163.499 75.0309 163.395 74.9844 163.348C74.9612 163.325 74.9092 163.372 74.8859 163.348C74.8395 163.302 74.9323 163.198 74.8859 163.151C74.8835 163.149 74.878 163.152 74.8751 163.151C74.789 163.326 74.657 163.455 74.3502 163.408C74.3281 163.035 74.2309 162.764 74.1162 162.462H73.9007C73.8741 162.462 73.8477 162.464 73.8206 162.462C73.8729 162.523 73.9189 162.592 73.9761 162.648C73.8311 163.26 73.4509 163.637 72.8401 163.783C72.5445 163.385 72.1777 163.059 71.7056 162.837C71.7182 161.669 71.5099 159.959 72.2736 160.567C72.4746 159.861 71.5637 160.268 71.7056 159.622C69.8857 154.57 65.5576 152.026 63.5731 147.137C62.3956 145.793 61.684 143.981 60.5467 142.596C60.6696 141.037 60.2001 140.021 60.7345 139.002C64.892 136.05 68.6566 130.431 71.3269 125.572C71.7067 124.88 72.2848 123.902 72.4614 123.113C72.5181 122.864 72.0724 122.778 72.0842 122.546C72.1158 121.893 72.8555 121.093 72.4614 120.465C72.0303 120.518 71.7521 120.419 71.7056 120.086C71.9861 119.925 72.1111 119.611 72.0827 119.141C69.6402 116.728 67.0299 114.484 65.0847 111.575C62.2466 114.285 58.6702 116.259 54.3015 117.438C53.8002 118.262 53.2352 119.019 52.0324 119.139C49.731 121.064 48.1152 123.938 45.601 125.76C42.7431 127.831 38.9375 128.744 35.7644 130.678C35.4867 130.734 35.139 130.479 34.8962 130.401C34.8874 130.405 34.873 130.401 34.867 130.408C34.8341 130.441 34.8998 130.513 34.867 130.546C34.8187 130.594 34.7262 130.539 34.6546 130.531C34.7401 130.739 35.0558 130.717 35.198 130.868C33.609 133.63 30.6593 135.031 28.3878 137.11C26.7855 138.679 27.4227 141.048 26.4975 142.784C26.1026 143.526 25.0812 143.499 24.2269 144.297C22.7081 145.716 22.9226 148.04 21.2005 148.649C20.6488 149.865 19.4945 151.481 20.066 153.189C20.6082 152.849 20.9498 152.307 21.9578 152.431C22.2928 152.648 22.8197 153.085 22.335 153.568C22.1652 153.636 22.058 153.643 21.9809 153.618V153.694C21.9481 153.694 21.9809 153.825 21.9809 153.792V153.891V154.186C21.9481 154.186 21.9809 154.318 21.9809 154.285V154.186C22.0466 154.186 21.9345 154.337 21.9809 154.383C22.0042 154.407 22.0562 154.36 22.0795 154.383C22.0834 154.387 22.0787 154.394 22.0795 154.399C22.314 154.229 22.5759 154.16 22.8553 154.183C24.0904 154.286 25.6132 156.009 26.1157 156.979C26.1046 157.662 25.6438 157.894 25.5477 158.492C26.3193 159.044 26.9905 159.696 26.8715 161.14C26.799 161.196 26.7081 161.234 26.6114 161.266C26.6129 161.408 26.6177 161.562 26.6114 161.575C26.5905 161.617 26.5336 161.632 26.5128 161.674C26.4982 161.703 26.5275 161.743 26.5128 161.772C26.492 161.814 26.4351 161.829 26.4143 161.871C26.3849 161.93 26.4607 162.021 26.4143 162.068C26.3911 162.091 26.3391 162.045 26.3158 162.068C26.3095 162.074 26.3182 162.097 26.3158 162.108C26.7198 162.546 26.8801 163.095 26.6822 163.787C25.2714 164.461 23.329 165.546 21.6038 165.302C21.5983 165.308 21.594 165.315 21.5869 165.319C21.5569 165.334 21.3357 165.319 21.2913 165.319H20.7002C20.7002 165.286 20.5688 165.319 20.6017 165.319C20.5601 165.298 20.5447 165.241 20.5031 165.22C20.4838 165.211 20.4609 165.217 20.4385 165.22C20.4377 165.248 20.4417 165.273 20.4401 165.301C17.7911 164.861 16.695 163.505 14.3873 163.977C14.3077 163.615 14.3182 163.163 13.8193 163.219C13.7357 163.577 14.0766 164.358 13.4406 164.164C13.1579 163.355 12.3838 163.039 12.0659 162.265H11.932C11.8991 162.265 11.8567 162.288 11.8335 162.265C11.8102 162.242 11.8567 162.19 11.8335 162.166C11.7965 162.129 11.6903 162.162 11.6118 162.166C11.7557 162.461 11.8129 162.803 11.7427 163.218C10.7393 163.275 11.1721 161.897 10.2295 161.894C10.2586 162.364 10.2653 162.811 9.85231 162.839C8.9207 161.523 7.31009 161.421 7.01372 159.813C6.48409 156.931 10.5461 154.352 9.28429 151.489C10.7487 150.747 9.95889 147.751 10.7975 146.383C9.7733 140.683 12.0228 134.542 16.1299 133.122C16.1508 133.097 16.1693 133.07 16.1976 133.055C16.2391 133.035 16.2897 133.055 16.3361 133.055C16.3825 133.009 16.4174 132.945 16.4762 132.915C16.5177 132.895 16.5732 132.936 16.6147 132.915C16.78 132.833 16.8654 132.589 17.0288 132.503C18.6308 130.586 21.3495 129.106 21.7685 126.71C23.776 125.692 24.2308 123.12 25.7401 121.603C27.7207 112.664 31.2854 106.216 34.2528 98.5259C34.1897 92.7014 37.9508 88.4996 39.7375 83.3939C36.0915 84.2199 32.3027 83.78 28.5771 84.9071C25.9802 84.6092 23.0348 84.7043 20.6325 84.7177C20.076 84.0849 19.1871 83.9358 18.3634 83.771C13.3713 82.7724 9.20306 80.7201 5.31116 78.2863C3.98943 76.7604 2.86328 74.063 1.52893 73.1786C1.2318 70.7992 0.133209 68.3767 0.0141907 65.6127C-0.439789 55.0845 10.0874 45.7292 18.7421 43.6705C21.2587 43.0715 23.7106 43.1694 25.7401 41.4C27.1525 41.489 27.4999 41.1535 28.7665 40.8335C28.8414 41.159 28.4859 41.3172 28.7665 41.4C29.7233 40.6607 32.0595 41.0851 31.9822 40.2654C33.3875 40.8006 35.9358 39.5884 36.9005 40.2654C36.7854 40.5925 36.0042 40.2508 35.9553 40.6441C39.6762 41.2731 42.3475 42.9529 44.8452 44.805C44.4322 44.8216 43.6207 44.287 43.5198 44.6157C45.6194 46.3623 47.8341 47.9951 49.7619 49.9127C49.4033 49.9019 48.9801 49.753 48.5212 49.5571C48.5164 49.5723 48.5117 49.5876 48.5212 49.5971C48.5376 49.6135 48.5756 49.5807 48.5919 49.5971C48.6083 49.6135 48.5756 49.6515 48.5919 49.6679C48.6248 49.7007 48.6976 49.6351 48.7305 49.6679C48.7469 49.6843 48.7141 49.7207 48.7305 49.7372C48.7469 49.7536 48.7833 49.7207 48.7998 49.7372C48.8162 49.7536 48.7834 49.79 48.7998 49.8064C48.8162 49.8229 48.8542 49.79 48.8705 49.8064C48.8869 49.8229 48.8542 49.8593 48.8705 49.8757C48.9034 49.9086 48.9763 49.8429 49.0091 49.8757C49.0255 49.8921 48.9987 49.9257 49.0091 49.9465C49.0238 49.9759 49.0652 49.9864 49.0799 50.0158C49.0903 50.0366 49.0799 50.0618 49.0799 50.0851V50.1543V50.4145C49.9872 50.5754 50.8032 50.8279 50.8948 51.8045C50.5713 51.6429 50.1559 51.4822 49.7064 51.3396C49.6822 51.332 49.6615 51.3226 49.6371 51.315C49.6348 51.3242 49.6316 51.3338 49.6371 51.3396C49.6535 51.3561 49.69 51.3232 49.7064 51.3396C49.7228 51.3561 49.696 51.3881 49.7064 51.4089C49.7211 51.4383 49.7609 51.4488 49.7757 51.4782C49.7965 51.5197 49.7428 51.5854 49.7757 51.6183C49.7921 51.6347 49.8286 51.6018 49.8449 51.6183C49.8613 51.6347 49.8286 51.6711 49.8449 51.6875C49.8609 51.7036 49.8974 51.6735 49.9142 51.6875C49.9166 51.7172 49.9242 51.7568 49.9158 51.7568C49.8925 51.7568 49.9322 51.704 49.9158 51.6875H49.9142C49.9103 51.6434 49.9158 51.6186 49.985 51.7568C49.9988 51.7844 49.9707 51.9519 49.985 51.9662C50.0014 51.9826 50.0378 51.9497 50.0543 51.9662C50.0776 51.9895 50.0824 52.0044 50.0758 52.0154C50.9263 52.0673 51.3845 52.1475 51.6506 53.1284C51.0002 52.7924 50.1244 52.6822 49.7849 52.0354H49.5047C49.4133 52.3683 49.4308 52.4827 49.5709 52.9406C50.4978 53.4009 51.901 53.3843 52.2186 54.4538C50.0725 53.5687 48.9723 52.5753 45.9765 53.3177C46.2862 54.18 45.0587 53.9163 45.5993 54.4538C34.9813 57.4125 32.2062 48.5439 22.7105 48.5888C21.8948 47.859 20.0715 47.9738 18.5496 48.3994C13.3005 49.8678 5.46661 57.2316 4.73993 64.2888C4.32457 68.3273 6.83665 71.9629 8.90083 73.5573C10.6868 74.9366 13.6541 76.2062 15.9003 76.5853C17.1519 76.7965 18.7206 76.55 20.0612 76.7731C21.7369 77.0521 23.3555 77.4174 25.3582 77.1517C31.4916 76.3391 35.7975 72.7679 40.4902 69.9644C49.1158 64.8115 57.9958 59.6369 66.4054 56.1548V55.5883C70.4652 55.6986 74.1986 54.005 78.1323 53.3177C84.1381 52.2679 90.3239 51.8943 97.4267 52.5619C102.676 53.0553 109.051 53.7598 114.263 54.0751C118.176 54.3115 124.255 54.4533 126.558 52.3726C126.668 52.2725 126.234 52.0079 126.368 51.8045C127.256 50.4662 129.115 49.8234 131.097 49.7248C130.447 49.3087 129.162 49.6019 128.45 49.7248C128.416 48.6821 129.995 49.2526 130.529 48.7781C130.108 48.3171 129.155 46.68 130.34 46.3198C130.13 46.8455 129.995 47.9198 130.719 48.0223C129.877 45.5491 132.745 44.5273 132.8 42.9147C133.119 42.5395 133.668 42.3953 134.124 42.1573C134.581 39.7952 138.662 39.5558 139.608 41.5908C138.317 40.288 135.093 40.6701 134.88 42.1573C135.493 42.0478 135.761 42.286 136.205 42.3467C136.968 40.6214 139.255 41.7601 140.555 42.1573C140.654 41.8775 140.835 41.6813 140.934 41.4015C139.027 40.6669 135.855 38.0741 134.313 40.8335C135.027 35.9185 140.583 41.4994 143.392 41.5908C143.491 41.311 143.672 41.1133 143.771 40.8335C143.34 40.5734 143.059 41.3213 143.014 40.8335C143.296 40.612 143.788 40.5988 143.96 40.267C143.323 40.3308 142.053 40.7454 141.5 40.267C142.664 39.7894 140.083 40.1407 140.366 39.3203C142.674 39.8602 146.229 39.9509 146.419 37.8071C145.251 39.1398 140.956 39.9368 139.798 37.9964C141.444 38.4614 144.004 39.0193 145.284 37.8071C142.99 38.6488 141.333 37.2552 139.231 36.8619C141.778 36.9604 146.099 39.1977 146.419 34.97C146.043 34.9724 146.179 35.4866 145.663 35.3487C144.858 33.3555 143.144 32.3067 143.771 30.0517C144.282 28.2161 146.086 27.9355 147.553 26.836C147.444 26.8255 147.351 26.7983 147.247 26.7821H147.234H147.182C147.177 26.7821 147.171 26.7839 147.165 26.7821C147.153 26.778 147.142 26.7683 147.13 26.7652C147.006 26.7342 147.219 26.8184 147.044 26.7483C147.041 26.7474 147.04 26.7461 147.037 26.7452C145.951 26.3365 145.182 25.733 144.744 24.9795C143.975 24.7251 143.258 24.8458 142.636 26.0802C142.593 25.3425 143.042 25.099 143.203 24.567C145.051 23.5448 146.061 25.3664 147.553 25.5122C152.615 26.0071 150.577 20.4904 153.229 17.1888C152.895 17.3535 152.642 17.8217 152.471 17.1888C153.618 14.8939 155.27 13.1037 157.754 12.1458C157.758 12.1361 157.753 12.157 157.765 12.1212C157.783 12.0668 157.734 12.128 157.79 12.072C157.793 12.0646 157.786 12.0547 157.79 12.0473C157.8 12.0266 157.829 12.0188 157.839 11.9981C157.843 11.9907 157.834 11.9803 157.839 11.9734C157.852 11.9541 157.875 11.9435 157.888 11.9242C157.893 11.9173 157.885 11.9069 157.888 11.8995C157.894 11.8892 157.908 11.8853 157.913 11.8749C157.917 11.8676 157.909 11.8576 157.913 11.8503C157.964 11.7478 157.911 11.8766 157.962 11.8257C157.968 11.8198 157.958 11.8084 157.962 11.801C157.967 11.7906 157.982 11.7868 157.987 11.7764C157.987 11.7754 157.987 11.7743 157.987 11.7733C157.594 11.8878 157.242 11.9903 157.011 12.0812C157.265 10.5072 159.496 10.9104 160.605 10.1909C160.111 10.2444 159.793 10.1209 159.849 9.62282C160.629 9.40766 162.002 10.073 163.442 9.81217C164.95 9.11307 164.9 6.85615 166.469 6.21775C167.873 2.43641 175.176 1.10533 178.525 3.79326C178.518 3.74066 178.494 3.68322 178.528 3.64856C178.575 3.60212 178.667 3.67793 178.725 3.64856C178.809 3.60702 178.839 3.49306 178.923 3.45152C178.978 3.42383 179.06 3.48284 179.109 3.45152C178.029 3.00577 177.045 2.4645 175.927 2.05686C176.116 1.63125 176.959 2.46572 177.252 1.86751C176.807 1.63264 175.89 1.24373 176.306 0.733002C177.284 1.64086 178.486 2.34419 179.809 2.68184C179.807 2.67495 179.805 2.66772 179.809 2.66337C179.821 2.65176 179.844 2.67071 179.858 2.66337C179.879 2.65298 179.891 2.63053 179.908 2.61411C179.924 2.59769 179.936 2.57523 179.957 2.56485C179.972 2.5575 179.995 2.57646 180.006 2.56485C180.018 2.55324 179.995 2.5272 180.006 2.51559C180.018 2.50398 180.041 2.52293 180.055 2.51559C180.075 2.50585 180.084 2.48113 180.102 2.46941C179.085 2.42001 178.218 1.93482 177.629 0.543659C178.857 0.890447 179.957 1.83738 181.413 1.67817C182.119 1.60093 182.477 0.982058 183.116 0.733001C184.2 0.309369 185.261 0.109832 186.262 0.123412C188.354 0.151782 190.178 1.12021 191.425 2.90967H191.582H191.632C191.648 2.90967 191.666 2.90232 191.681 2.90967C191.702 2.92005 191.709 2.94854 191.73 2.95893C191.759 2.97361 191.799 2.94424 191.829 2.95893C191.133 1.96214 190.332 1.07186 189.547 0.164975C190.033 0.0279345 190.457 -0.0184772 190.834 0.00642047ZM20.6017 165.319H20.7003C20.7003 165.352 20.6311 165.334 20.6017 165.319ZM21.981 153.792V153.694C22.0139 153.694 21.981 153.759 21.981 153.792ZM191.495 95.8643C191.688 95.0744 191.828 94.2397 191.889 93.3398C191.903 93.3284 191.919 93.3175 191.927 93.3013C191.956 93.2426 191.881 93.1507 191.927 93.1042C191.95 93.081 192.002 93.1275 192.026 93.1042C192.049 93.081 192.026 93.0386 192.026 93.0057V92.3161V91.8189C192.046 91.7135 192.06 91.6223 192.081 91.5141C193.47 97.7804 191.265 100.593 191.495 95.8643V95.8643ZM190.745 2.75265C190.745 2.75565 190.743 2.75971 190.745 2.76189C190.746 2.76294 190.757 2.76142 190.76 2.76189C190.755 2.75888 190.75 2.75567 190.745 2.75265ZM220.569 47.6437C222.622 47.8596 224.634 48.1186 225.297 49.7249C223.76 48.9927 222.118 48.364 220.569 47.6437ZM49.4279 51.2504C49.4271 51.2574 49.4232 51.2658 49.4279 51.2704C49.4387 51.2812 49.468 51.2734 49.4925 51.2704C49.4706 51.2639 49.45 51.2567 49.4279 51.2504ZM202.598 79.9904C202.64 82.447 201.944 85.0739 201.653 87.7457C202.699 85.9408 203.498 82.5676 202.598 79.9904ZM25.0274 157.634C24.9982 157.641 24.9581 157.613 24.9366 157.634C24.9203 157.651 24.9326 157.679 24.9366 157.704C24.9498 157.714 24.9688 157.724 24.9812 157.735C24.9912 157.698 25.0126 157.669 25.0274 157.635L25.0274 157.634Z" fill="white"/>
</svg>
