<svg width="48" height="65" viewBox="0 0 48 65" fill="none" xmlns="http://www.w3.org/2000/svg">
<path d="M47.191 49.9252C46.8551 49.207 46.4634 48.5052 46.2731 47.7299C46.0816 46.923 45.9125 46.1055 45.8708 45.2757C46.1685 45.769 46.3429 46.3246 46.5685 46.8526C46.6894 47.1221 46.7623 47.4181 46.9197 47.6689C46.9443 47.6801 46.9931 47.7018 47.0172 47.7129C46.8997 47.2102 46.666 46.7439 46.518 46.25C46.054 44.9562 46.0833 43.5544 45.7163 42.2389C45.5812 41.6921 44.9939 41.3832 44.9323 40.81C44.8735 40.1687 44.9552 39.5257 44.9587 38.8838C45.0116 37.9835 44.9194 37.0826 44.9605 36.1823C44.9998 35.188 44.9793 34.1532 44.5705 33.2283C44.1812 32.3297 43.44 31.6544 42.7047 31.0366C42.3077 30.6936 41.8679 30.3812 41.5778 29.936C41.2741 29.4891 41.1097 28.9488 40.718 28.5641C40.4237 28.2493 40.0009 28.1207 39.6115 27.9686C38.2878 27.4853 36.93 27.103 35.5957 26.649C35.0613 26.4658 34.5092 26.2931 34.0506 25.9513C33.2384 25.3681 32.5295 24.6534 31.8712 23.9046C30.9791 23.0342 30.0483 22.2038 29.1732 21.3165C29.0828 21.2225 28.9888 21.1303 28.9219 21.0187C28.9008 20.8167 29.0763 20.6294 29.007 20.4297C28.8908 20.2911 28.7017 20.2523 28.539 20.1954C28.0116 20.045 27.483 19.897 26.9709 19.6991C24.7563 18.975 22.5269 18.2057 20.532 16.9777C19.4948 16.3452 18.6116 15.4989 17.7776 14.6244C15.9993 12.741 14.4383 10.6691 12.8521 8.62593C11.6776 7.18005 10.6117 5.65076 9.54164 4.12736C9.31141 3.77913 9.15696 3.34923 8.77581 3.13193C8.42169 2.92872 8.00061 3.0779 7.62121 2.99742C7.48556 2.96866 7.38335 2.84471 7.38103 2.70671C7.34346 2.11236 7.59188 1.54447 7.59598 0.953087C7.56133 0.684109 7.44096 0.430974 7.29117 0.20843C7.20895 0.0974426 7.08094 -0.0476293 6.92823 0.0152176C6.78198 0.110361 6.69862 0.271277 6.61286 0.417527C6.42375 0.770477 6.26519 1.13988 6.12954 1.51631C5.99328 1.89981 5.99917 2.31207 5.95335 2.71142C5.91752 3.09549 5.58395 3.39205 5.23335 3.50483C4.85749 3.63288 4.49516 3.40558 4.14452 3.29926C4.02647 3.26814 3.85559 3.20237 3.77219 3.33038C3.65885 3.54179 3.80802 3.83076 3.63772 4.02044C3.37756 4.23656 3.00873 4.30351 2.80024 4.58716C2.50071 4.98414 2.26403 5.42403 2.00212 5.84629C1.69674 6.33314 1.41777 6.84997 0.987308 7.24168C0.676039 7.55762 0.269058 7.81603 0.10993 8.24946C-0.00516085 8.62004 -0.030999 9.02113 0.0376979 9.40346C0.0588229 9.51091 0.095263 9.6548 0.224451 9.67593C0.465844 9.68828 0.671975 9.51444 0.91276 9.50798C1.13181 9.49974 1.3585 9.54146 1.57109 9.46687C2.16718 9.26602 2.76091 9.03641 3.38812 8.95301C3.97483 8.87196 4.5615 9.13094 5.14467 8.98412C5.54462 8.89897 5.84939 8.60708 6.1401 8.33928C6.29631 8.20128 6.45958 8.04097 6.6757 8.01042C6.88772 7.99986 7.08797 8.10496 7.24478 8.24004C7.58306 8.54013 7.87199 8.90133 8.04464 9.32298C9.39892 12.2617 10.7138 15.2322 12.4122 17.9942C13.5862 19.9152 15.0738 21.6171 16.5784 23.2832C17.716 24.5312 18.8923 25.7428 20.051 26.9719C20.3922 27.3543 20.7681 27.7131 21.0523 28.1424C21.3354 28.7038 21.1498 29.344 21.0353 29.9242C20.959 30.4633 20.7017 30.9496 20.5003 31.4482C20.2495 32.0513 20.0369 32.6991 20.1004 33.361C20.1943 34.4616 20.6806 35.4693 21.04 36.4983C21.2397 37.2782 21.39 38.0792 21.39 38.8873C21.3971 39.3401 21.2732 39.7788 21.1528 40.211C20.7687 41.5118 20.3112 42.7898 19.8461 44.063C19.5002 44.9727 19.1971 45.9059 18.7085 46.7522C18.5007 47.1515 18.244 47.5309 18.1066 47.9631C17.9591 48.4324 18.153 48.9192 18.0784 49.3961C17.9245 50.5624 17.7295 51.7223 17.5533 52.8857C17.3049 54.4132 17.0677 55.9431 16.7881 57.4659C16.6812 58.0737 16.4129 58.6346 16.1897 59.2054C16.068 59.5463 16.1376 59.875 16.0101 60.222C15.9522 60.3794 15.8814 60.5317 15.8229 60.6888C15.7608 60.8557 15.7473 61.0206 15.7049 61.1899C15.6383 61.4559 15.4726 61.7711 15.2614 61.9479C14.8972 62.2528 14.5261 62.5497 14.1981 62.9025C13.9711 63.1467 13.7484 63.4101 13.4691 63.6065C13.4008 63.6545 13.4054 63.725 13.416 63.7938C13.428 63.8714 13.4919 63.8777 13.5535 63.8821C13.6052 63.8858 13.657 63.8892 13.7088 63.8905C14.2875 63.9043 14.8664 63.9019 15.4445 63.8765C15.6919 63.8656 15.9411 63.8647 16.1761 63.7476C16.5004 63.586 16.8581 63.5904 17.2107 63.5832C17.2453 63.5824 17.2799 63.5831 17.3144 63.5816C17.7117 63.5643 17.8567 63.3543 17.7284 62.9797C17.7119 62.9312 17.6813 62.8876 17.6631 62.8396C17.6418 62.7837 17.6141 62.7259 17.6114 62.6679C17.6008 62.4425 17.5086 62.257 17.3737 62.0795C17.1085 61.7308 17.3441 61.2721 17.5624 60.9666C17.8028 60.6303 18.2061 60.3707 18.2851 59.9472C18.6721 57.8735 18.9423 55.7804 19.3158 53.705C19.408 53.2146 19.4867 52.7201 19.6318 52.2421C19.8496 51.5362 20.1339 50.8538 20.4328 50.179C20.5937 49.8084 20.784 49.4502 20.9073 49.0643C21.0694 48.5246 21.363 48.0401 21.6091 47.5368C22.2522 46.2824 22.8923 45.0268 23.5524 43.7812C23.8196 43.2655 24.1156 42.7652 24.3664 42.2413C24.448 42.155 24.4826 42.3147 24.5091 42.3676C24.9566 43.558 25.2632 44.7936 25.6073 46.0157C25.7952 46.7634 26.0243 47.5039 26.1188 48.2709C26.1946 48.7801 26.2292 49.2933 26.275 49.8054C26.2891 49.9875 26.3343 50.1666 26.4048 50.3358C26.615 50.8214 26.6221 51.36 26.6926 51.8774C26.9598 54.0609 27.2288 56.245 27.4461 58.4344C27.4925 59.0586 27.5958 59.6906 27.4813 60.3137C27.431 60.6717 27.3734 61.3178 27.3733 61.3179C27.3465 61.6192 27.3486 61.9227 27.3098 62.223C27.2783 62.4659 27.2261 62.8174 27.0845 63.0236C26.9527 63.2157 26.783 63.3899 26.6018 63.538C26.348 63.7455 26.1688 64.0168 25.94 64.2447C25.808 64.3765 25.7593 64.514 25.5961 64.6253C25.5664 64.6456 25.5257 64.6666 25.5611 64.7118C25.6363 64.8076 25.7193 64.9167 25.8473 64.9116C26.1127 64.901 26.3619 64.9938 26.6281 64.9958C27.1865 65.0001 27.7407 65.025 28.289 64.8758C28.7317 64.7553 29.1593 64.6063 29.5513 64.365C29.7411 64.2482 29.7658 64.0215 29.5937 63.8727C29.5252 63.8136 29.4921 63.7504 29.4699 63.668C29.4234 63.4953 29.3678 63.3252 29.3173 63.1536C29.2098 62.7885 29.1402 62.4234 29.257 62.0437C29.3668 61.6867 29.3931 61.3232 29.4393 60.9555C29.4882 60.5661 29.5319 60.1765 29.5914 59.7886C29.6589 59.3482 29.693 58.8872 29.565 58.4543C29.4698 58.112 29.2919 57.7984 29.2167 57.4495C29.0934 56.8981 29.0382 56.3343 28.943 55.7776C28.7474 54.3434 28.5325 52.9099 28.4174 51.4664C28.3546 50.6941 28.5061 49.9283 28.5501 49.1595C28.5848 48.594 28.5078 48.0307 28.4297 47.4723C28.213 46.0716 27.9511 44.6792 27.6839 43.2873C27.5159 42.2936 27.3532 41.2988 27.1853 40.3051C27.6446 39.8964 28.2835 39.8294 28.8708 39.7906C29.3042 39.8141 29.7247 39.9386 30.1487 40.0255C31.096 40.2235 32.0656 40.4255 33.0381 40.3168C33.9596 40.1824 34.7818 39.7184 35.6292 39.3619C35.8312 39.2856 36.0403 39.2004 36.2599 39.2033C36.4602 39.2186 36.5718 39.423 36.61 39.5997C36.7162 40.1535 36.6076 40.7314 36.7668 41.2782C37.0369 42.195 37.448 43.0612 37.7593 43.9639C37.9995 44.658 38.2849 45.3351 38.5145 46.0334C38.9004 47.2414 39.1065 48.4988 39.2534 49.7556C39.3961 51.1433 39.4154 52.5505 39.2204 53.9341C39.0449 55.4634 38.8417 56.9903 38.5598 58.5043C38.4288 59.1884 38.2908 59.8967 37.9196 60.4981C37.8268 60.6362 37.7576 60.7906 37.6941 60.9438C37.6307 61.0967 37.597 61.2405 37.4875 61.3694C37.2552 61.6431 37.0469 61.9556 36.7366 62.1489C36.5767 62.2486 36.415 62.3602 36.336 62.5409C36.2071 62.8358 36.0309 63.099 35.8297 63.3473C35.7538 63.4408 35.674 63.5312 35.5946 63.622C35.5453 63.6784 35.5207 63.7413 35.5531 63.8119C35.5854 63.8824 35.6535 63.8643 35.7115 63.8611C35.7804 63.8572 35.849 63.8475 35.9178 63.8407C36.1499 63.8178 36.3827 63.7709 36.614 63.7773C37.1576 63.7923 37.6979 63.7678 38.2387 63.7188C38.5123 63.694 38.6859 63.5187 38.8645 63.3443C38.9042 63.3057 38.9126 63.2552 38.9096 63.201C38.9015 63.0548 38.9066 62.9068 38.8861 62.7624C38.8413 62.4471 38.8653 62.0896 39.0317 61.8142C39.1456 61.6258 39.2809 61.4502 39.4341 61.292C39.5069 61.2167 39.5886 61.1492 39.6561 61.0707C39.7381 60.9754 39.8295 60.8868 39.9164 60.7959C40.1027 60.6011 40.2887 60.3796 40.3368 60.1058C40.4267 59.65 40.2904 59.1914 40.3028 58.7345C40.3169 57.9493 40.3668 57.1658 40.402 56.3824C40.5089 55.0152 40.3874 53.6322 40.6311 52.2767C40.8337 51.192 41.1602 50.1349 41.5126 49.0913C41.8603 49.7115 42.2032 50.3486 42.3718 51.0446C42.683 52.2978 42.8892 53.5746 43.1164 54.8455C43.4118 56.7248 43.6908 58.607 43.9175 60.4957C43.9877 60.7926 43.7642 61.0357 43.7279 61.3179H43.7319C43.6816 61.6201 43.5841 61.8905 43.5763 62.1992C43.5729 62.3307 43.5456 62.4396 43.4923 62.5446C43.3281 62.8681 43.2641 63.226 43.131 63.5598C43.102 63.6327 43.1219 63.7031 43.1382 63.7759C43.1511 63.8336 43.1457 63.9082 43.1955 63.951C43.2158 63.9684 43.2419 63.9772 43.2674 63.9852C43.4144 64.0311 43.6027 64.0997 43.7565 64.0564C44.1121 63.9572 44.4975 63.9337 44.8048 63.6914C44.8357 63.667 44.8807 63.6582 44.9207 63.6482C45.1926 63.5801 45.4186 63.4127 45.6708 63.3019C45.7329 63.2747 45.7872 63.2273 45.8409 63.1841C45.9349 63.1086 45.9486 63.0393 45.9085 62.9182C45.8736 62.8128 45.8294 62.7077 45.815 62.599C45.7925 62.4297 45.7067 62.3136 45.5559 62.2533C45.457 62.2138 45.4136 62.1461 45.3992 62.0528C45.3834 61.9508 45.362 61.8417 45.3242 61.7454C45.2872 61.6512 45.2319 61.5613 45.2243 61.4582C45.2182 61.3761 45.244 61.2973 45.2693 61.2205C45.2947 61.1432 45.3082 61.0636 45.3322 60.9867C45.4026 60.6837 45.851 60.0333 45.5864 59.2172C45.3738 58.5871 45.2687 57.9282 45.1706 57.2722C44.9674 55.9232 44.8077 54.5677 44.618 53.217C44.4958 52.2362 44.3561 51.2566 44.2938 50.2695C44.2392 49.7391 44.2974 49.2065 44.3678 48.6803C44.4735 47.9468 44.5164 47.1733 44.2521 46.4662C43.6895 44.8548 42.8127 43.3237 42.6348 41.6006C42.5244 40.1142 42.9343 38.6613 43.2543 37.2254C43.4428 36.4466 43.2426 35.6438 43.3366 34.8575C43.6555 35.063 43.8134 35.4277 43.9861 35.7507C44.2821 36.2992 44.3214 36.9324 44.396 37.5384C44.4976 38.5121 44.5939 39.4888 44.5898 40.4683C44.6016 41.0915 44.0666 41.5983 44.1805 42.2331C44.2692 42.8498 44.8095 43.2462 45.0379 43.8006C45.2405 44.2692 45.4396 44.7637 45.4208 45.2846C45.3996 46.101 45.2951 46.9278 45.4496 47.7383C45.6228 48.5071 46.112 49.1548 46.6077 49.7492C46.8097 49.96 46.9882 50.2307 47.286 50.3112C47.2803 50.176 47.2486 50.0456 47.191 49.9252Z" fill="#22272A"/>
</svg>
