<svg width="65" height="48" viewBox="0 0 65 48" fill="none" xmlns="http://www.w3.org/2000/svg">
<path fill-rule="evenodd" clip-rule="evenodd" d="M10.3559 0.00183846C9.60065 0.0517436 9.51687 1.10105 8.77476 1.23869C8.37869 1.31226 8.05985 1.08427 7.69131 1.18447C7.19726 1.31885 6.73778 1.82285 6.6008 2.34242C6.57938 2.33582 6.55803 2.32921 6.54482 2.34242C6.53152 2.35572 6.55811 2.38554 6.54482 2.39884C6.51822 2.42544 6.45857 2.37225 6.43198 2.39884C6.41868 2.41214 6.44527 2.44196 6.43198 2.45526C6.40538 2.48186 6.34573 2.42867 6.31913 2.45526C6.30583 2.46856 6.33243 2.49838 6.31913 2.51168C6.29933 2.53149 6.076 2.4922 6.03703 2.51168C6.01324 2.52358 6.0044 2.55621 5.98061 2.56811C5.97851 2.56917 5.9758 2.56838 5.97356 2.56899C6.04183 2.50604 6.09724 2.43027 6.12034 2.32214C5.63828 2.43612 5.12591 2.98826 4.92889 3.56781C5.05775 3.91153 4.96382 4.03669 4.87467 4.38018C5.20665 4.99201 6.06638 4.74208 6.55363 5.193C6.16726 5.63691 5.55566 5.85584 5.19953 6.33023C4.76464 7.77302 3.37528 8.26135 2.22069 8.98421C1.80475 9.5931 1.01073 9.76614 1.02924 10.501C1.04571 11.1609 2.06691 11.9781 1.67896 12.6132C1.28898 12.5076 0.886452 12.4059 0.650162 12.2884V12.559C1.03337 12.5906 1.83862 12.5727 1.78739 13.2092H1.02924C1.02698 13.1347 1.05479 13.0901 1.08346 13.0465C0.875151 13.3437 0.0916274 13.0659 0 13.4798C0.421802 13.4789 1.20406 13.157 1.84161 13.3714C1.94362 13.7929 2.12195 14.1384 2.32912 14.4548C2.15919 14.4293 2.18578 14.6008 2.05804 14.6175C1.80121 15.9366 2.43337 16.7946 2.97884 17.4879C3.11245 17.4951 3.24005 17.496 3.30415 17.4337C3.29331 17.5887 3.29709 17.7296 3.46636 17.7048C3.6785 17.6515 3.42855 17.4722 3.57479 17.3799C3.5283 17.6067 3.81705 17.4982 3.89965 17.5963C3.98451 17.5187 3.94252 17.3142 4.11652 17.3257C4.12171 17.4108 4.1094 17.5132 4.22495 17.4879C4.36939 16.9623 4.6734 16.7131 5.14576 16.8382C4.52174 17.0566 4.69439 17.982 5.14576 18.2465C4.97017 18.7978 5.21733 19.5953 5.63327 19.5464C5.40127 19.2859 5.53464 18.6037 5.63327 18.2465C5.80953 19.5505 6.15787 20.6823 7.09536 21.2253C6.79701 21.3603 6.52605 21.5228 6.28299 21.7128C6.51669 21.9887 7.0957 21.7197 7.3065 21.6688C7.30925 21.6882 7.31373 21.7085 7.3065 21.723C7.30055 21.7349 7.28423 21.7393 7.27829 21.7512C7.27408 21.7596 7.27829 21.77 7.27829 21.7794V21.8067C6.83294 22.5567 6.38108 23.4652 6.66207 24.5295C6.88391 25.3697 7.62365 26.1896 7.96195 26.8044C7.90959 26.1526 7.68167 25.6759 7.52866 25.125C8.02584 25.8014 8.01851 26.9819 8.77432 27.3999C8.5852 26.8307 8.27079 26.3872 8.07038 25.8294H8.34103C7.85591 25.2948 7.5996 24.266 7.9236 23.4438C7.92466 23.4436 7.9263 23.4447 7.92713 23.4438C7.92941 23.4415 7.92718 23.4374 7.92713 23.4341C7.92957 23.428 7.93124 23.4217 7.93374 23.4156C7.94158 23.4172 7.95025 23.4207 7.95534 23.4156C7.96199 23.4089 7.95113 23.3958 7.95534 23.3874C7.97227 23.3535 8.02304 23.3366 8.03997 23.3028C8.04417 23.2943 8.03577 23.283 8.03997 23.2746C8.04558 23.2633 8.07888 23.2339 8.103 23.2115C7.95767 24.1666 7.97886 25.4538 8.5579 25.9378C8.7987 26.966 9.05922 28.1501 9.53248 28.8086C9.60131 28.9043 9.5341 29.204 9.80356 29.0251C9.36619 28.1449 9.46757 26.5161 9.85778 25.5587C9.9132 25.7917 9.95961 26.0058 9.99883 26.2045C10.0125 26.1427 10.0267 26.0804 10.0429 26.0163C10.0433 26.0147 10.0424 26.0126 10.0429 26.011C10.0432 26.0103 10.0443 26.0098 10.0447 26.0092C10.0545 25.9705 10.0603 25.9353 10.0711 25.8959C10.0713 25.9073 10.0711 25.9113 10.0711 25.9219C10.0687 25.9445 10.0679 25.9657 10.0658 25.988C10.0591 25.9953 10.049 26.0005 10.0447 26.0092C10.0441 26.0116 10.0435 26.0138 10.0429 26.0162C10.0323 26.0579 10.0565 26.1113 10.0429 26.152C10.0387 26.1646 10.0206 26.1683 10.0147 26.1802C10.0105 26.1886 10.0147 26.199 10.0147 26.2084V26.2648V26.2917C10.1086 26.7844 10.1529 27.1632 10.1668 27.4501C10.4004 28.404 10.9132 29.1289 11.2119 30.0543C11.2992 30.3249 11.4027 30.6048 11.591 30.8671C11.1872 29.093 11.1431 28.8038 11.1431 28.8038C11.3517 29.288 11.5206 29.9374 11.6443 30.4338C11.8598 30.3243 11.6743 29.8136 11.9154 29.7299C11.9445 30.188 12.0045 30.6154 12.2945 30.8129C12.2595 30.5371 12.0334 29.9793 12.3487 29.8383C12.1808 30.7618 12.5162 31.5118 13.0526 31.8963C12.9143 31.3123 12.4193 30.7968 12.5651 30.1089C12.8113 30.2206 12.7412 31.1148 13.0526 30.8129C13.2266 31.2527 13.4695 31.6237 13.8108 31.8963C13.964 31.811 13.6885 31.6064 13.865 31.5173C14.4296 32.0788 14.5855 33.088 14.2441 34.0086C14.5894 33.8481 14.6149 33.3684 14.7316 32.9793C14.8367 33.6318 14.3358 33.9482 14.3525 34.3334C14.6132 34.4111 14.5925 33.9274 14.7316 34.0628C14.7115 34.3496 14.4989 34.4436 14.5151 34.7667C14.9525 34.518 14.8962 33.7758 15.2733 33.4669C15.4532 33.8972 14.687 34.3979 15.1106 34.713C15.1007 34.378 15.1892 34.141 15.3275 33.9544C15.4801 34.7445 15.5485 35.5428 15.5982 36.2835C15.641 36.9213 15.8009 37.5669 15.8692 38.2335C15.9541 39.0622 15.7469 40.0116 15.815 40.8875C15.9136 42.1561 16.4331 43.1021 15.7608 44.029C15.5225 43.7546 15.2666 43.8332 14.8942 43.7042C14.7351 43.7919 14.5076 43.8711 14.6236 44.0832C14.6392 44.088 14.6488 44.0867 14.661 44.0881C14.6634 44.0995 14.6651 44.1112 14.6694 44.122C14.6719 44.1282 14.6805 44.1302 14.6835 44.1361C14.6845 44.1379 14.6838 44.1589 14.6835 44.1784C14.6748 44.1755 14.6672 44.1698 14.6588 44.1661C14.567 44.1103 14.4773 44.0524 14.4076 43.9744C14.3285 43.9686 14.2535 43.9669 14.1819 43.9686C13.7772 43.9783 13.4869 44.1022 13.2615 44.2913C13.2607 44.2915 13.2597 44.2908 13.2589 44.2913C13.2355 44.3147 13.239 44.313 13.243 44.308C13.247 44.3031 13.2514 44.295 13.2307 44.3054C13.2138 44.3139 13.2053 44.3392 13.1884 44.3477C13.1842 44.3497 13.1776 44.3444 13.1743 44.3477C13.1686 44.3534 13.1758 44.3645 13.1743 44.3719C13.1729 44.3733 13.1713 44.3745 13.1699 44.3759C13.1664 44.3752 13.1624 44.3736 13.1602 44.3759C13.1595 44.3766 13.1604 44.383 13.1602 44.3852C12.8515 44.6974 12.6717 45.1387 12.4575 45.5453C11.5034 45.6699 12.0746 47.431 12.9451 47.1701C12.987 47.5433 13.3642 47.5813 13.4868 47.874C13.9289 47.7632 14.4239 47.6432 14.9493 47.766C14.9846 47.643 14.9557 47.5838 14.9189 47.5328C14.9196 47.5335 14.9203 47.5342 14.9211 47.5346C14.9242 47.5362 14.9462 47.5346 14.9506 47.5346H15.0207H15.0904C15.0937 47.5346 15.0982 47.537 15.1005 47.5346C15.1029 47.5323 15.0982 47.5273 15.1005 47.5249C15.1029 47.5226 15.1073 47.5249 15.1107 47.5249C15.12 47.5249 15.1548 47.5267 15.1605 47.5249C15.1649 47.5234 15.166 47.5169 15.1702 47.5148C15.1761 47.5118 15.1857 47.5195 15.1904 47.5148C15.1928 47.5125 15.1881 47.507 15.1904 47.5047C15.1938 47.5014 15.2069 47.508 15.2103 47.5047C15.2126 47.5023 15.2079 47.4973 15.2103 47.495C15.2126 47.4926 15.2176 47.4973 15.22 47.495C15.2223 47.4926 15.2176 47.4872 15.22 47.4848C15.2233 47.4815 15.2369 47.4882 15.2402 47.4848C15.2426 47.4825 15.2402 47.4784 15.2402 47.4751C15.2436 47.4751 15.247 47.4767 15.2499 47.4751C15.2541 47.4731 15.2559 47.4671 15.2601 47.465C15.2624 47.4639 15.2742 47.4645 15.2826 47.465C15.3389 47.6845 15.7555 47.7314 15.8701 47.7118C15.8688 47.7055 15.8664 47.7003 15.8648 47.6942H15.8684H15.8785C15.8818 47.6942 15.8859 47.6966 15.8882 47.6942C15.8906 47.6919 15.8859 47.6869 15.8882 47.6845C15.8906 47.6822 15.896 47.6869 15.8983 47.6845C15.9007 47.6822 15.896 47.6767 15.8983 47.6744C15.9007 47.672 15.9055 47.676 15.9085 47.6744C15.9127 47.6723 15.914 47.6668 15.9182 47.6647C15.9221 47.6626 15.9461 47.6667 15.9481 47.6647C15.9505 47.6623 15.9458 47.6569 15.9481 47.6545C15.9505 47.6522 15.9559 47.6569 15.9583 47.6545C15.9606 47.6522 15.9559 47.6468 15.9583 47.6444C15.9606 47.6421 15.9656 47.6468 15.968 47.6444C15.9703 47.6421 15.9656 47.637 15.968 47.6347C15.9727 47.63 15.9836 47.6394 15.9883 47.6347C15.9906 47.6324 15.9859 47.6269 15.9883 47.6246C15.9906 47.6222 15.9956 47.6269 15.998 47.6246C16.0003 47.6222 15.9956 47.6168 15.998 47.6144C16.0003 47.6121 16.0057 47.6168 16.0081 47.6144C16.0104 47.6121 16.0057 47.6071 16.0081 47.6047C16.0104 47.6024 16.0159 47.6071 16.0182 47.6047C16.0229 47.6 16.0135 47.5891 16.0182 47.5844C16.0206 47.5821 16.0256 47.5868 16.0279 47.5844C16.0303 47.5821 16.0256 47.5771 16.0279 47.5747C16.0303 47.5724 16.0357 47.5771 16.0381 47.5747C16.0408 47.572 16.0354 47.54 16.0381 47.5346C16.0402 47.5304 16.0457 47.5291 16.0478 47.5249C16.0493 47.5219 16.0478 47.5181 16.0478 47.5148V47.5047V47.4451V47.3971C16.0807 47.3656 16.1202 47.3363 16.1941 47.3341C16.2162 47.4645 16.0952 47.4517 16.1399 47.6047C16.7095 47.6198 17.1151 47.3252 17.7651 47.4421C17.9373 47.1629 18.3352 47.1095 18.5232 46.8461C18.4529 46.0249 18.8104 45.6319 18.9345 45.0054C18.9351 45.0047 18.9359 45.0043 18.9362 45.0036C18.9374 45.0013 18.9369 44.9988 18.9362 44.9961C18.9367 44.9938 18.9371 44.9917 18.9376 44.9895C18.9394 44.9894 18.9419 44.9908 18.9433 44.9895C18.945 44.9879 18.9433 44.9849 18.9433 44.9824V44.9613C18.9037 44.8713 18.9625 44.9273 19.0107 44.8418C19.5145 43.9686 19.689 42.927 19.7147 41.7545C19.7172 41.641 19.5963 41.503 19.6067 41.375C19.6351 41.0268 19.928 40.4594 20.04 39.9671C20.318 38.7444 20.541 37.2434 20.6897 35.9048C21.0061 35.2102 21.4656 34.6582 21.7732 33.9548C21.7677 34.1218 21.5878 34.5037 21.8812 34.4965C21.9213 34.2478 21.9004 33.9379 21.9896 33.7379C22.5364 34.399 21.6847 34.5704 21.5021 35.2005C21.2089 36.2127 21.0826 36.9254 21.8274 37.6918C21.9817 37.6799 21.7998 37.5557 21.8256 37.5009C21.8358 37.5064 21.8539 37.4922 21.8626 37.5009C21.8721 37.5103 21.8532 37.5316 21.8626 37.541C21.8721 37.5505 21.8909 37.5351 21.9028 37.541C21.9031 37.5412 21.9033 37.5417 21.9036 37.5419C21.9503 37.6823 21.9802 37.839 21.9896 38.0167C23.1844 38.6457 24.2721 39.382 25.2937 40.1836C25.2989 40.0985 25.2866 39.9957 25.4022 40.0209C26.3191 40.2231 28.0833 40.2241 28.5979 39.8583C28.5699 39.8505 28.5395 39.8461 28.5102 39.8402C28.5122 39.8386 28.5144 39.8371 28.5154 39.8349C28.517 39.8319 28.5139 39.8282 28.5154 39.8252C28.5175 39.821 28.5235 39.8193 28.5256 39.8151C28.5272 39.8121 28.5245 39.8085 28.5256 39.8054C28.5279 39.7983 28.5329 39.7922 28.5353 39.7851C28.5364 39.782 28.5337 39.7784 28.5353 39.7754C28.5373 39.7712 28.5434 39.7695 28.5454 39.7653C28.5477 39.7609 28.5465 39.7549 28.5454 39.749C28.5812 39.7492 28.615 39.7515 28.653 39.7494C29.1571 39.2552 29.8396 38.8215 30.0071 37.854C29.9774 37.8527 29.9596 37.8394 29.9418 37.8263C29.9421 37.8188 29.9432 37.8029 29.9418 37.8003C29.9398 37.7961 29.9337 37.7943 29.9317 37.7901C29.9287 37.7842 29.9364 37.775 29.9317 37.7703C29.9294 37.7679 29.9243 37.7726 29.922 37.7703C29.9197 37.7679 29.9236 37.7636 29.922 37.7606C29.92 37.7564 29.9139 37.7546 29.9119 37.7504C29.9092 37.7451 29.9145 37.7359 29.9119 37.7306C29.9098 37.7264 29.9038 37.7247 29.9017 37.7205C29.8983 37.7136 29.9052 37.6742 29.9017 37.6707C29.8994 37.6683 29.8944 37.673 29.892 37.6707C29.887 37.6657 29.897 37.6457 29.892 37.6407C29.8897 37.6383 29.8842 37.643 29.8819 37.6407C29.8772 37.636 29.8866 37.6255 29.8819 37.6209C29.8795 37.6185 29.8745 37.6232 29.8722 37.6209C29.8717 37.6204 29.8723 37.616 29.8722 37.6142C29.8983 37.6223 29.9145 37.6262 29.952 37.638C29.8497 37.379 29.8283 37.0398 29.5187 36.9883C29.4544 37.1664 29.1854 37.0799 29.1392 36.9341C29.2324 36.937 29.2781 36.8925 29.3018 36.8257C28.9039 36.2466 27.4228 36.2931 26.8105 36.663C26.4185 36.5315 26.1627 36.2635 25.5644 36.3382C24.786 35.0987 27.2991 33.966 27.5144 32.926C27.4707 32.9238 27.4302 32.9186 27.3923 32.9106C27.3919 32.9051 27.3923 32.8997 27.3923 32.8943C27.4017 32.8943 27.4139 32.9009 27.4205 32.8943C27.4272 32.8876 27.4139 32.8727 27.4205 32.8661C27.4338 32.8528 27.4601 32.8745 27.4769 32.8661C27.4825 32.8633 27.5032 32.8403 27.5184 32.8246C28.2486 33.0151 29.3337 32.325 30.3324 32.4923C30.4258 32.4595 30.3282 32.2356 30.4408 32.2216C31.0028 32.455 31.7947 32.233 32.2824 32.059C32.2447 31.9524 31.9803 32.0722 31.9576 31.9505C32.1753 31.9133 32.2668 32.0023 32.4451 32.0048C33.07 31.4392 34.3792 31.5165 35.2075 31.4088C35.2235 31.5553 34.9811 31.7184 35.1533 31.8421C35.2185 31.6352 35.4478 31.3082 35.6408 31.4088C35.5956 31.5444 35.4917 31.6218 35.4777 31.7883C35.5522 32.8152 35.8389 33.63 36.2363 34.3339C36.3372 34.3413 36.417 34.3692 36.4527 34.4419C36.9115 36.0952 37.5885 37.5311 39.3236 37.9082C39.8478 39.0272 40.9156 39.6025 41.9238 40.2374C41.8962 40.7524 42.4083 40.7272 42.6277 40.9955C42.7302 42.3248 42.686 44.1562 41.111 44.137C40.9893 44.0059 40.863 43.8796 40.7319 43.7579C40.3112 43.7525 39.9953 43.8522 39.6484 43.9206C39.5967 44.0215 39.8107 44.1013 39.6484 44.137C38.8554 43.7256 37.8295 44.5603 38.1321 45.3831C37.8362 45.5081 37.6726 45.8109 37.861 46.1413C37.7049 46.2198 37.4702 46.2197 37.4819 46.4661C37.5955 46.5979 37.7226 46.4183 37.8068 46.5203C37.8337 46.8905 38.1932 46.9278 38.4565 47.0616C38.5838 47.0445 38.489 46.805 38.6734 46.8452C38.5601 46.9648 38.631 47.2061 38.7276 47.2785C38.8851 47.2822 39.032 47.2752 39.1076 47.1969C39.1143 47.1965 39.1218 47.1939 39.1278 47.1969C39.1397 47.2029 39.1442 47.2192 39.1561 47.2252C39.1729 47.2336 39.1992 47.2119 39.2125 47.2252C39.2191 47.2318 39.2058 47.2467 39.2125 47.2534C39.2166 47.2575 39.2429 47.2554 39.2698 47.2534C39.2059 47.2898 39.1624 47.3593 39.1609 47.4949C39.493 47.5273 40.4049 47.7566 40.8368 47.2816C40.8393 47.2816 40.8431 47.2815 40.8465 47.2816C40.9546 47.3154 41.0169 47.431 41.1105 47.3327C41.1048 47.2905 41.0945 47.2573 41.0836 47.2252H41.1026H41.2436C41.2505 47.2252 41.2577 47.2258 41.2644 47.2252C41.2673 47.2424 41.2711 47.2569 41.2732 47.2785C41.9511 47.2523 42.5751 47.1723 43.2228 47.1158C43.2478 47.0636 43.2787 47.0175 43.3096 46.9713C43.3308 46.9713 43.359 46.9717 43.3594 46.9713C43.3661 46.9646 43.3528 46.9497 43.3594 46.9431C43.3688 46.9336 43.4064 46.9525 43.4158 46.9431C43.4225 46.9364 43.4092 46.9215 43.4158 46.9148C43.4225 46.9082 43.4356 46.919 43.4441 46.9148C43.5615 46.8561 43.4139 46.9169 43.4723 46.8584C43.4789 46.8518 43.4938 46.8651 43.5005 46.8584C43.5071 46.8518 43.4938 46.8369 43.5005 46.8302C43.5071 46.8236 43.522 46.8369 43.5287 46.8302C43.542 46.8169 43.5154 46.7871 43.5287 46.7738C43.5353 46.7671 43.5502 46.7804 43.5569 46.7738C43.5702 46.7605 43.5436 46.7307 43.5569 46.7174C43.5576 46.7167 43.5592 46.7176 43.56 46.7174C43.5847 46.7674 43.6225 46.8042 43.7103 46.791C43.7166 46.684 43.7444 46.6065 43.7773 46.5199H43.839C43.8466 46.5199 43.8542 46.5206 43.8619 46.5199C43.847 46.5375 43.8338 46.557 43.8174 46.5732C43.8589 46.7484 43.9678 46.8563 44.1427 46.8981C44.2273 46.7841 44.3324 46.6909 44.4676 46.6275C44.464 46.2928 44.5236 45.8033 44.3049 45.9773C44.2474 45.7753 44.5082 45.8917 44.4676 45.7066C44.9887 44.26 46.228 43.5315 46.7963 42.1319C47.1334 41.7468 47.3372 41.2281 47.6628 40.8315C47.6276 40.3851 47.7621 40.0941 47.6091 39.8023C46.4186 38.9571 45.3406 37.3482 44.576 35.9569C44.4672 35.7587 44.3017 35.4784 44.2511 35.2525C44.2349 35.1814 44.3625 35.1566 44.3591 35.0903C44.3501 34.9034 44.1383 34.6742 44.2511 34.4943C44.3746 34.5094 44.4543 34.4811 44.4676 34.3859C44.3872 34.3399 44.3515 34.25 44.3596 34.1152C45.059 33.4242 45.8064 32.7818 46.3634 31.9488C47.1761 32.7249 48.2002 33.2899 49.4511 33.6277C49.5947 33.8636 49.7565 34.0803 50.1008 34.1148C50.7598 34.6659 51.2225 35.4889 51.9425 36.0106C52.7608 36.6035 53.8505 36.8649 54.7591 37.419C54.8386 37.4348 54.9382 37.3618 55.0077 37.3396C55.0102 37.3405 55.0143 37.3394 55.0161 37.3414C55.0255 37.3508 55.0067 37.3717 55.0161 37.3811C55.0299 37.3949 55.0564 37.3791 55.0769 37.3767C55.0524 37.4362 54.962 37.43 54.9213 37.4732C55.3763 38.2642 56.2209 38.6653 56.8713 39.2606C57.3302 39.7097 57.1477 40.3882 57.4126 40.8854C57.5257 41.0977 57.8181 41.09 58.0628 41.3187C58.4977 41.7249 58.4363 42.3903 58.9294 42.5648C59.0874 42.9128 59.4179 43.3756 59.2542 43.8646C59.099 43.7674 59.0012 43.6121 58.7125 43.6478C58.6166 43.7098 58.4657 43.835 58.6045 43.9731C58.6531 43.9927 58.6838 43.9946 58.7059 43.9876V44.0092C58.7153 44.0092 58.7059 44.0468 58.7059 44.0374V44.0656V44.1503C58.7153 44.1503 58.7059 44.1879 58.7059 44.1785V44.1503C58.6871 44.1503 58.7192 44.1934 58.7059 44.2067C58.6992 44.2133 58.6843 44.2 58.6777 44.2067C58.6766 44.2078 58.6779 44.2097 58.6777 44.2111C58.6105 44.1624 58.5355 44.1427 58.4555 44.1494C58.1019 44.1788 57.6658 44.6723 57.5219 44.9498C57.5251 45.1455 57.6571 45.2121 57.6846 45.3831C57.4636 45.5413 57.2714 45.7281 57.3055 46.1413C57.3263 46.1575 57.3523 46.1683 57.38 46.1774C57.3796 46.2183 57.3782 46.2622 57.38 46.266C57.386 46.2779 57.4023 46.2824 57.4082 46.2943C57.4124 46.3027 57.404 46.314 57.4082 46.3225C57.4142 46.3344 57.4305 46.3388 57.4364 46.3507C57.4448 46.3675 57.4231 46.3938 57.4364 46.4071C57.4431 46.4137 57.458 46.4004 57.4646 46.4071C57.4664 46.4089 57.464 46.4153 57.4646 46.4186C57.3489 46.544 57.3031 46.7013 57.3597 46.8995C57.7637 47.0925 58.3199 47.403 58.8139 47.3332C58.8155 47.3348 58.8167 47.337 58.8187 47.338C58.8273 47.3423 58.8907 47.338 58.9034 47.338H59.0726C59.0726 47.3286 59.1103 47.338 59.1008 47.338C59.1127 47.3321 59.1172 47.3158 59.1291 47.3098C59.1346 47.3071 59.1412 47.3089 59.1476 47.3098C59.1478 47.3177 59.1467 47.3248 59.1471 47.3327C59.9056 47.2068 60.2195 46.8187 60.8803 46.9537C60.9031 46.8501 60.9001 46.7206 61.0429 46.7368C61.0669 46.8393 60.9692 47.063 61.1514 47.0074C61.2323 46.7758 61.454 46.6851 61.545 46.4635H61.5834C61.5928 46.4635 61.6049 46.4702 61.6116 46.4635C61.6182 46.4569 61.6049 46.442 61.6116 46.4353C61.6221 46.4247 61.6526 46.434 61.675 46.4353C61.6338 46.5197 61.6174 46.6177 61.6376 46.7364C61.9249 46.7528 61.8009 46.3582 62.0709 46.3573C62.0625 46.4918 62.0606 46.62 62.1789 46.6279C62.4456 46.251 62.9068 46.2217 62.9917 45.7613C63.1433 44.9362 61.9802 44.1977 62.3415 43.378C61.9222 43.1654 62.1483 42.3075 61.9082 41.9159C62.2015 40.2836 61.5574 38.5252 60.3813 38.1185C60.3753 38.1116 60.37 38.1036 60.3619 38.0996C60.35 38.0936 60.3356 38.0996 60.3223 38.0996C60.309 38.0863 60.299 38.0679 60.2822 38.0595C60.2703 38.0535 60.2544 38.0654 60.2425 38.0595C60.1951 38.0358 60.1707 37.966 60.1239 37.9413C59.6652 37.3926 58.8867 36.9686 58.7667 36.2826C58.1919 35.9911 58.0617 35.2548 57.6295 34.8201C57.0623 32.2606 56.0416 30.4142 55.1919 28.2123C55.21 26.5445 54.133 25.3413 53.6214 23.8793C54.6654 24.1158 55.7503 23.9899 56.8171 24.3126C57.5607 24.2273 58.4041 24.2545 59.092 24.2584C59.2514 24.0772 59.5059 24.0345 59.7417 23.9873C61.1712 23.7014 62.3648 23.1137 63.4792 22.4168C63.8577 21.9799 64.1801 21.2075 64.5622 20.9542C64.6473 20.2729 64.9619 19.5792 64.9959 18.7878C65.1259 15.7731 62.1115 13.0943 59.6333 12.5048C58.9127 12.3333 58.2106 12.3613 57.6295 11.8546C57.2251 11.8801 57.1256 11.784 56.7629 11.6924C56.7415 11.7856 56.8432 11.8309 56.7629 11.8546C56.4889 11.6429 55.82 11.7645 55.8421 11.5298C55.4397 11.683 54.71 11.3359 54.4338 11.5298C54.4667 11.6234 54.6904 11.5256 54.7044 11.6382C53.639 11.8183 52.8741 12.2993 52.1589 12.8296C52.2771 12.8344 52.5095 12.6813 52.5384 12.7754C51.9372 13.2755 51.303 13.7431 50.751 14.2922C50.8537 14.2891 50.9749 14.2465 51.1063 14.1904C51.1076 14.1947 51.109 14.1991 51.1063 14.2018C51.1016 14.2065 51.0907 14.1971 51.086 14.2018C51.0813 14.2065 51.0907 14.2174 51.086 14.2221C51.0766 14.2315 51.0557 14.2127 51.0463 14.2221C51.0416 14.2268 51.051 14.2372 51.0463 14.2419C51.0416 14.2466 51.0312 14.2372 51.0265 14.2419C51.0218 14.2466 51.0312 14.2571 51.0265 14.2618C51.0218 14.2665 51.0109 14.2571 51.0062 14.2618C51.0015 14.2665 51.0109 14.2769 51.0062 14.2816C50.9968 14.291 50.976 14.2722 50.9666 14.2816C50.9619 14.2863 50.9695 14.2959 50.9666 14.3019C50.9624 14.3103 50.9505 14.3133 50.9463 14.3217C50.9433 14.3276 50.9463 14.3349 50.9463 14.3415V14.3614V14.4359C50.6865 14.4819 50.4528 14.5543 50.4266 14.8339C50.5192 14.7876 50.6382 14.7416 50.7669 14.7008C50.7738 14.6986 50.7798 14.6959 50.7867 14.6937C50.7874 14.6964 50.7883 14.6991 50.7867 14.7008C50.782 14.7055 50.7716 14.6961 50.7669 14.7008C50.7622 14.7055 50.7699 14.7147 50.7669 14.7206C50.7627 14.729 50.7513 14.732 50.7471 14.7405C50.7411 14.7523 50.7565 14.7712 50.7471 14.7806C50.7424 14.7853 50.7319 14.7759 50.7272 14.7806C50.7225 14.7853 50.7319 14.7957 50.7272 14.8004C50.7226 14.805 50.7122 14.7964 50.7074 14.8004C50.7067 14.8089 50.7045 14.8202 50.7069 14.8202C50.7136 14.8202 50.7022 14.8051 50.7069 14.8004H50.7074C50.7085 14.7878 50.7069 14.7807 50.6871 14.8202C50.6832 14.8281 50.6912 14.8761 50.6871 14.8802C50.6824 14.8849 50.672 14.8755 50.6673 14.8802C50.6606 14.8868 50.6592 14.8911 50.6611 14.8943C50.4176 14.9091 50.2864 14.9321 50.2102 15.213C50.3964 15.1168 50.6472 15.0852 50.7444 14.9H50.8246C50.8508 14.9953 50.8458 15.0281 50.8057 15.1592C50.5403 15.291 50.1385 15.2862 50.0475 15.5925C50.6621 15.3391 50.9771 15.0546 51.8349 15.2672C51.7462 15.5141 52.0977 15.4386 51.9429 15.5925C54.9833 16.4397 55.778 13.9002 58.497 13.9131C58.7306 13.7041 59.2527 13.737 59.6884 13.8589C61.1915 14.2793 63.4347 16.3879 63.6428 18.4087C63.7617 19.5651 63.0424 20.6061 62.4513 21.0627C61.9399 21.4576 61.0902 21.8211 60.447 21.9297C60.0887 21.9902 59.6395 21.9196 59.2556 21.9835C58.7758 22.0634 58.3123 22.168 57.7388 22.0919C55.9826 21.8592 54.7496 20.8366 53.4059 20.0339C50.936 18.5584 48.3933 17.0766 45.9852 16.0796V15.9174C44.8227 15.9489 43.7537 15.464 42.6273 15.2672C40.9076 14.9666 39.1363 14.8596 37.1025 15.0508C35.5994 15.192 33.7738 15.3938 32.2816 15.4841C31.1611 15.5518 29.4205 15.5924 28.761 14.9965C28.7294 14.9679 28.8538 14.8921 28.8152 14.8339C28.5611 14.4507 28.0287 14.2666 27.4611 14.2384C27.6473 14.1192 28.0153 14.2032 28.2193 14.2384C28.229 13.9398 27.7768 14.1032 27.6238 13.9673C27.7445 13.8353 28.0172 13.3665 27.678 13.2634C27.738 13.4139 27.7767 13.7215 27.5696 13.7509C27.8106 13.0427 26.9892 12.7501 26.9736 12.2883C26.8822 12.1809 26.725 12.1396 26.5945 12.0715C26.4636 11.3951 25.2951 11.3266 25.024 11.9093C25.3939 11.5362 26.317 11.6456 26.3781 12.0715C26.2023 12.0401 26.1257 12.1083 25.9986 12.1257C25.7801 11.6317 25.1253 11.9577 24.7529 12.0715C24.7247 11.9914 24.6727 11.9352 24.6445 11.8551C25.1904 11.6447 26.0989 10.9023 26.5403 11.6924C26.3359 10.285 24.7449 11.8831 23.9406 11.9093C23.9123 11.8292 23.8603 11.7725 23.8321 11.6924C23.9556 11.6179 24.0359 11.8321 24.049 11.6924C23.968 11.629 23.8271 11.6252 23.7779 11.5302C23.9605 11.5485 24.3241 11.6672 24.4823 11.5302C24.1489 11.3934 24.8882 11.494 24.8071 11.2591C24.1463 11.4137 23.1284 11.4397 23.074 10.8258C23.4082 11.2074 24.638 11.4357 24.9698 10.88C24.4983 11.0132 23.7653 11.1729 23.3988 10.8258C24.0558 11.0668 24.5301 10.6678 25.132 10.5552C24.4028 10.5834 23.1656 11.224 23.074 10.0134C23.1816 10.0141 23.1426 10.1614 23.2904 10.1219C23.5208 9.55112 24.0118 9.2508 23.8321 8.60512C23.6859 8.07951 23.1693 7.99915 22.7491 7.68432C22.7805 7.68131 22.8071 7.67351 22.8368 7.66889H22.8403H22.8553C22.8569 7.66889 22.8586 7.66941 22.8602 7.66889C22.8637 7.66772 22.8667 7.66494 22.8703 7.66404C22.9058 7.65516 22.8448 7.67928 22.895 7.6592C22.8957 7.65895 22.8961 7.65856 22.8968 7.65832C23.2078 7.54129 23.4281 7.36849 23.5536 7.15273C23.7737 7.07987 23.979 7.11444 24.157 7.4679C24.1694 7.25666 24.0408 7.18694 23.9948 7.0346C23.4656 6.74189 23.1764 7.26349 22.7491 7.30524C21.2996 7.44697 21.8834 5.86729 21.124 4.92191C21.2194 4.96907 21.2918 5.10313 21.3408 4.92191C21.0124 4.26479 20.5393 3.75215 19.828 3.47788C19.827 3.47508 19.8284 3.48109 19.825 3.47083C19.8198 3.45526 19.834 3.47277 19.8179 3.45673C19.8168 3.45463 19.819 3.45177 19.8179 3.44967C19.8149 3.44373 19.8068 3.44152 19.8038 3.43557C19.8027 3.43347 19.8051 3.43048 19.8038 3.42852C19.8001 3.42298 19.7934 3.41994 19.7897 3.41441C19.7884 3.41245 19.7908 3.40946 19.7897 3.40736C19.7882 3.40438 19.7841 3.40328 19.7826 3.40031C19.7816 3.39821 19.7837 3.39535 19.7826 3.39325C19.768 3.3639 19.7831 3.40079 19.7685 3.3862C19.7669 3.38453 19.7696 3.38125 19.7685 3.37915C19.767 3.37617 19.763 3.37507 19.7615 3.3721C19.7613 3.37182 19.7615 3.37151 19.7615 3.37122C19.8741 3.40398 19.9748 3.43334 20.0409 3.45937C19.968 3.00868 19.3295 3.12413 19.0117 2.91809C19.1532 2.93343 19.2444 2.89807 19.2281 2.75543C19.0049 2.69382 18.6117 2.88435 18.1993 2.80965C17.7676 2.60947 17.7821 1.96322 17.3327 1.78041C16.9305 0.69765 14.8395 0.316504 13.8804 1.08618C13.8824 1.07111 13.8894 1.05467 13.8795 1.04474C13.8662 1.03144 13.8399 1.05315 13.8231 1.04474C13.7993 1.03285 13.7905 1.00022 13.7667 0.988322C13.7508 0.980391 13.7272 0.997289 13.7133 0.988322C14.0226 0.860684 14.3043 0.705695 14.6245 0.588968C14.5703 0.467099 14.3289 0.706045 14.2449 0.534751C14.3724 0.467497 14.635 0.356133 14.516 0.20989C14.2358 0.46985 13.8918 0.671244 13.5128 0.767928C13.5133 0.765955 13.514 0.763885 13.5128 0.762638C13.5095 0.759314 13.5029 0.764742 13.4987 0.762638C13.4927 0.759665 13.4893 0.753235 13.4846 0.748533C13.4799 0.743831 13.4764 0.737401 13.4705 0.734428C13.4663 0.732324 13.4597 0.737752 13.4564 0.734428C13.453 0.731103 13.4597 0.723647 13.4564 0.720322C13.453 0.716998 13.4465 0.722426 13.4423 0.720322C13.4367 0.717535 13.4342 0.710456 13.429 0.707099C13.7203 0.692955 13.9683 0.554025 14.1369 0.155673C13.7856 0.254974 13.4706 0.526122 13.0535 0.480534C12.8513 0.458417 12.7488 0.281206 12.566 0.20989C12.2556 0.0885858 11.9517 0.0314498 11.665 0.0353383C11.066 0.0434617 10.5437 0.320766 10.1866 0.833164H10.1416H10.1275C10.1228 0.833164 10.1176 0.831061 10.1134 0.833164C10.1075 0.836138 10.1053 0.844296 10.0993 0.84727C10.0909 0.851475 10.0795 0.843064 10.0711 0.84727C10.2702 0.561846 10.4995 0.306919 10.7244 0.0472396C10.5852 0.00799887 10.4638 -0.00529084 10.3559 0.00183846ZM59.1008 47.338H59.0726C59.0726 47.3475 59.0924 47.3422 59.1008 47.338ZM58.7059 44.0374V44.0092C58.6965 44.0092 58.7059 44.028 58.7059 44.0374ZM10.1668 27.4501C10.1114 27.2239 10.0713 26.9849 10.0539 26.7272C10.0497 26.724 10.0452 26.7209 10.0429 26.7162C10.0345 26.6994 10.0562 26.6731 10.0429 26.6598C10.0363 26.6532 10.0213 26.6665 10.0147 26.6598C10.008 26.6532 10.0147 26.641 10.0147 26.6316V26.4341V26.2918C10.0089 26.2616 10.0049 26.2355 9.99883 26.2045C9.60104 27.9988 10.2324 28.8041 10.1668 27.4501V27.4501ZM10.3814 0.788204C10.3814 0.789064 10.3821 0.790226 10.3814 0.790849C10.3811 0.791149 10.3779 0.790715 10.377 0.790849C10.3785 0.789989 10.38 0.789068 10.3814 0.788204ZM1.84161 13.6425C1.25371 13.7043 0.677537 13.7785 0.487511 14.2384C0.92782 14.0287 1.39792 13.8487 1.84161 13.6425ZM50.8466 14.6752C50.8469 14.6772 50.848 14.6796 50.8466 14.681C50.8435 14.684 50.8351 14.6818 50.8281 14.681C50.8344 14.6791 50.8403 14.677 50.8466 14.6752ZM6.98737 22.9047C6.97541 23.6082 7.17473 24.3604 7.25801 25.1254C6.95853 24.6086 6.72963 23.6427 6.98737 22.9047ZM57.8336 45.1376C57.8419 45.1394 57.8534 45.1315 57.8596 45.1376C57.8642 45.1423 57.8607 45.1504 57.8596 45.1575C57.8558 45.1604 57.8504 45.1634 57.8468 45.1663C57.8439 45.1557 57.8378 45.1474 57.8336 45.1376L57.8336 45.1376Z" fill="#22272A"/>
</svg>
