<svg width="227" height="106" viewBox="0 0 227 106" fill="none" xmlns="http://www.w3.org/2000/svg">
<g opacity="0.5">
<path d="M216.442 48.6403C212.268 50.8502 202.937 53.3056 200.482 53.5511C197.781 53.7966 197.044 52.569 197.044 52.569C197.044 52.569 196.062 50.6046 197.535 49.1314C198.763 47.6582 198.518 46.185 198.518 46.185C198.518 46.185 198.026 45.2028 195.817 44.9573C193.607 44.7117 189.678 46.185 189.678 46.185C189.678 46.185 185.995 42.5019 184.522 39.801C183.049 37.1001 182.558 34.1536 182.067 32.4348C181.575 30.7161 181.33 26.5419 180.593 24.5776C179.857 22.6133 179.857 21.8767 179.857 21.1401C179.857 20.649 182.803 20.8945 184.031 20.649C185.259 20.4035 187.959 15.4927 189.187 12.3007C190.415 9.1087 189.187 8.37209 189.187 8.37209C188.451 8.37209 183.049 11.3185 179.857 12.7918C177.892 13.7739 175.683 15.0016 174.455 15.7382C174.209 13.7739 172.982 10.8275 170.772 10.0909C169.299 9.59978 166.598 8.37209 164.388 7.38994C164.142 6.89886 163.897 6.40779 163.406 5.67117C162.423 4.19794 160.214 3.21579 158.74 2.72471C157.267 2.23364 156.776 1.25149 155.794 0.760409C154.812 0.269333 153.584 0.514871 152.847 0.514871C152.111 0.514871 150.638 0.269333 149.655 0.0237945C148.673 -0.221744 146.955 1.49702 144.745 2.23364C142.535 2.97025 137.624 2.97025 135.169 2.72471C132.713 2.47918 127.066 1.9881 123.874 2.23364C120.682 2.47918 117.49 3.9524 112.088 5.67117C106.686 7.38994 97.6014 6.65332 92.1996 6.40779C87.0433 5.91671 67.4002 1.9881 65.1904 1.49702C62.9805 1.00595 61.2618 1.25149 56.1055 2.47918C50.9492 3.70687 39.6544 4.93456 33.2704 5.18009C27.132 5.42563 23.94 7.38994 18.5381 11.3185C18.5381 11.3185 13.3818 16.4748 12.6452 17.457C12.1541 18.6847 8.47106 21.6311 6.26122 23.841C4.29692 26.0508 2.08707 33.1714 1.84154 35.6268C1.596 38.0822 0.859383 50.3591 0.368307 53.06C-0.122769 55.7609 -0.122769 61.1628 0.368307 63.6182C0.859383 66.0735 2.57815 65.3369 2.57815 63.3726C2.57815 61.6539 1.84154 58.7074 1.84154 57.9708C1.84154 57.2342 2.82369 53.06 2.82369 52.3234C2.82369 51.3413 3.31476 48.3948 3.80584 49.6225C3.80584 50.1136 3.80584 52.8145 4.54245 54.2877C5.52461 56.252 8.7166 63.1271 8.47107 64.6003C8.22553 65.828 8.96214 69.5111 7.48891 72.212C6.01568 74.9129 5.27907 78.1049 5.03353 78.3505C4.78799 78.596 3.80584 79.3326 3.80584 81.5424C3.80584 83.5068 4.78799 84.4889 6.26122 86.4532C7.73445 88.4175 9.45322 91.1184 9.69876 92.3461C9.69876 93.8194 9.69876 98.7301 8.7166 100.203C7.73445 101.677 6.50676 105.36 8.47107 105.851H25.6587C28.1141 105.851 26.3953 102.904 25.4132 100.694C24.9221 99.9578 22.2212 98.7301 21.7301 98.4846C21.239 98.4846 19.5203 88.6631 19.7658 87.6809C20.0114 86.4532 21.239 82.2791 21.7301 81.0514C21.9757 80.5603 22.2212 78.8415 22.7123 77.1228C22.7123 77.3683 22.9578 77.6138 22.9578 77.8594C23.4489 79.3326 23.4489 82.2791 23.4489 84.7344C23.4489 87.1898 25.4132 88.6631 26.8864 89.3997C28.6052 90.1363 31.7972 96.0292 33.2704 98.239C34.9892 100.449 33.0249 101.431 32.0427 103.15C31.0606 104.869 32.5338 105.851 34.7436 105.851C36.9535 105.851 52.6679 105.851 52.6679 105.851C52.6679 104.623 50.2125 100.694 49.7215 100.203C49.4759 99.7123 47.0205 99.4667 46.5295 98.9756C46.0384 98.4846 42.6009 91.6095 41.6187 89.6452C40.6366 87.6809 40.391 85.9621 40.391 85.2255C40.1455 84.2434 39.1633 80.8058 38.4267 78.8415C37.6901 76.8772 37.199 71.4754 37.199 70.0022C37.199 68.7745 38.4267 66.5646 39.8999 65.5825C41.1276 64.3548 41.6187 61.4083 42.1098 59.1985L43.0919 59.6896C43.0919 59.6896 51.6858 69.2655 52.1768 69.7566C52.6679 70.2477 66.1725 75.8951 72.0654 76.6317C77.9584 77.1228 86.0611 76.8772 93.6728 75.8951C101.284 74.9129 108.405 73.9308 108.405 73.9308C108.651 74.4218 109.878 77.8594 109.387 79.0871C108.896 80.3148 107.423 83.2612 107.423 84.2434C107.423 85.2255 106.686 91.364 107.423 93.3283C108.16 95.2926 107.914 96.5203 107.177 98.239C106.195 99.9578 104.722 104.377 104.968 105.36L128.539 105.605L139.588 105.851C139.588 103.886 136.887 100.449 134.923 99.9578C133.696 99.7123 133.941 95.2926 132.959 94.3104C131.977 93.0827 131.977 91.1184 131.977 89.8907C131.977 88.663 133.204 84.2434 133.696 82.0335C133.941 79.8237 134.678 79.3326 135.905 77.3683C137.133 75.404 139.097 70.7388 139.343 69.2655C139.588 67.7923 140.079 67.3012 140.816 67.0557C141.553 66.8102 143.271 65.828 144.008 65.828C144.745 65.828 147.2 66.0735 147.937 65.5825C148.673 65.3369 148.919 63.6182 149.901 63.1271C150.883 62.636 152.602 62.3905 152.602 62.3905C152.602 62.3905 154.812 64.3548 155.548 64.3548C156.531 64.3548 157.513 63.6182 158.004 62.8816C158.495 62.1449 159.723 59.1985 159.723 59.1985C159.723 59.1985 159.723 59.1985 160.459 61.4083C161.196 63.6182 163.897 66.8102 164.879 67.3012C165.861 67.7923 173.718 74.1763 175.437 75.6495C177.401 77.1228 178.875 79.0871 179.857 79.5781C180.839 80.0692 181.33 79.5781 181.33 79.5781C181.33 79.5781 184.031 81.5424 185.504 81.788C187.223 82.0335 188.205 81.5424 190.906 80.8058C193.607 80.3148 195.571 78.1049 196.553 76.8772C197.535 75.6495 199.009 71.2299 199.254 70.0022C199.5 68.7745 202.446 67.7923 203.183 67.0557C203.919 66.5646 208.094 64.6003 208.83 63.6182C209.812 62.636 210.058 60.9172 210.058 60.9172C210.058 60.9172 213.004 58.7074 214.723 56.7431C216.442 55.0243 221.107 49.377 222.826 47.1671C224.299 45.2028 226.509 41.5197 227 40.7831C226.018 42.5019 220.37 46.676 216.442 48.6403ZM120.928 87.6809C120.928 87.6809 121.419 92.8372 122.155 93.5738C122.646 94.556 122.892 94.8015 122.892 95.5381C122.892 96.0292 121.173 97.9935 120.191 99.4667C119.945 99.4667 119.7 99.4667 119.454 99.4667C118.718 99.4667 117.49 95.5381 117.49 94.3104C117.49 93.0827 120.436 88.172 120.928 87.6809Z" fill="white"/>
<path d="M226.754 41.2743C227 41.2743 227 41.2743 226.754 41.2743C227 41.0287 227 41.2743 226.754 41.2743Z" fill="white"/>
</g>
</svg>
