<svg width="70" height="33" viewBox="0 0 70 33" fill="none" xmlns="http://www.w3.org/2000/svg">
<path d="M3.25582 14.9992C4.543 15.6807 7.42023 16.4378 8.1774 16.5136C9.01028 16.5893 9.23743 16.2107 9.23743 16.2107C9.23743 16.2107 9.54029 15.605 9.08599 15.1507C8.70741 14.6964 8.78313 14.2421 8.78313 14.2421C8.78313 14.2421 8.93457 13.9392 9.61601 13.8635C10.2975 13.7878 11.5089 14.2421 11.5089 14.2421C11.5089 14.2421 12.6447 13.1063 13.099 12.2734C13.5533 11.4405 13.7047 10.5319 13.8561 10.0019C14.0076 9.47191 14.0833 8.18473 14.3104 7.579C14.5376 6.97327 14.5376 6.74612 14.5376 6.51897C14.5376 6.36753 13.629 6.44325 13.2504 6.36753C12.8718 6.29182 12.0389 4.77748 11.6604 3.79317C11.2818 2.80885 11.6604 2.5817 11.6604 2.5817C11.8875 2.5817 13.5533 3.4903 14.5376 3.9446C15.1433 4.24747 15.8248 4.62605 16.2034 4.8532C16.2791 4.24747 16.6577 3.33887 17.3391 3.11172C17.7934 2.96029 18.6263 2.5817 19.3077 2.27884C19.3835 2.1274 19.4592 1.97597 19.6106 1.74882C19.9135 1.29452 20.5949 0.991653 21.0492 0.84022C21.5035 0.688787 21.655 0.385921 21.9578 0.234487C22.2607 0.0830541 22.6393 0.158771 22.8664 0.158771C23.0936 0.158771 23.5479 0.0830541 23.8507 0.0073375C24.1536 -0.0683791 24.6836 0.461637 25.3651 0.688787C26.0465 0.915937 27.5608 0.915937 28.318 0.84022C29.0752 0.764504 30.8167 0.61307 31.801 0.688787C32.7853 0.764504 33.7696 1.2188 35.4354 1.74882C37.1011 2.27884 39.9027 2.05169 41.5684 1.97597C43.1585 1.82454 49.2158 0.61307 49.8972 0.461637C50.5787 0.310204 51.1087 0.385921 52.6988 0.764504C54.2888 1.14309 57.7718 1.52167 59.7404 1.59739C61.6333 1.6731 62.6176 2.27884 64.2834 3.4903C64.2834 3.4903 65.8734 5.08035 66.1006 5.38322C66.252 5.7618 67.3878 6.6704 68.0692 7.35185C68.675 8.0333 69.3564 10.2291 69.4321 10.9862C69.5078 11.7434 69.735 15.5292 69.8864 16.3621C70.0379 17.195 70.0379 18.8608 69.8864 19.6179C69.735 20.3751 69.205 20.148 69.205 19.5422C69.205 19.0122 69.4321 18.1036 69.4321 17.8765C69.4321 17.6493 69.1293 16.3621 69.1293 16.135C69.1293 15.8321 68.9778 14.9235 68.8264 15.3021C68.8264 15.4535 68.8264 16.2864 68.5992 16.7407C68.2964 17.3464 67.3121 19.4665 67.3878 19.9208C67.4635 20.2994 67.2363 21.4351 67.6906 22.268C68.1449 23.1009 68.3721 24.0852 68.4478 24.1609C68.5235 24.2367 68.8264 24.4638 68.8264 25.1453C68.8264 25.751 68.5235 26.0539 68.0692 26.6596C67.6149 27.2653 67.0849 28.0982 67.0092 28.4768C67.0092 28.9311 67.0092 30.4454 67.3121 30.8997C67.6149 31.354 67.9935 32.4898 67.3878 32.6412H62.0876C61.3305 32.6412 61.8605 31.7326 62.1633 31.0511C62.3148 30.824 63.1476 30.4454 63.2991 30.3697C63.4505 30.3697 63.9805 27.341 63.9048 27.0382C63.8291 26.6596 63.4505 25.3724 63.2991 24.9938C63.2234 24.8424 63.1476 24.3124 62.9962 23.7824C62.9962 23.8581 62.9205 23.9338 62.9205 24.0095C62.7691 24.4638 62.7691 25.3724 62.7691 26.1296C62.7691 26.8867 62.1633 27.341 61.709 27.5682C61.179 27.7953 60.1947 29.6125 59.7404 30.294C59.2104 30.9754 59.8161 31.2783 60.119 31.8083C60.4219 32.3383 59.9676 32.6412 59.2861 32.6412C58.6047 32.6412 53.7588 32.6412 53.7588 32.6412C53.7588 32.2626 54.516 31.0511 54.6674 30.8997C54.7431 30.7483 55.5003 30.6726 55.6517 30.5211C55.8031 30.3697 56.8632 28.2496 57.166 27.6439C57.4689 27.0382 57.5446 26.5082 57.5446 26.281C57.6203 25.9781 57.9232 24.9181 58.1504 24.3124C58.3775 23.7066 58.5289 22.0409 58.5289 21.5866C58.5289 21.208 58.1504 20.5265 57.6961 20.2237C57.3175 19.8451 57.166 18.9365 57.0146 18.255L56.7117 18.4065C56.7117 18.4065 54.0617 21.3594 53.9102 21.5109C53.7588 21.6623 49.5944 23.4038 47.7772 23.6309C45.96 23.7824 43.4613 23.7066 41.1141 23.4038C38.7669 23.1009 36.5711 22.798 36.5711 22.798C36.4954 22.9495 36.1168 24.0095 36.2683 24.3881C36.4197 24.7667 36.874 25.6753 36.874 25.9781C36.874 26.281 37.1011 28.1739 36.874 28.7796C36.6468 29.3854 36.7226 29.764 36.9497 30.294C37.2526 30.824 37.7069 32.1869 37.6312 32.4898L30.3624 32.5655L26.9551 32.6412C26.9551 32.0355 27.788 30.9754 28.3937 30.824C28.7723 30.7483 28.6966 29.3854 28.9995 29.0825C29.3023 28.7039 29.3023 28.0982 29.3023 27.7196C29.3023 27.341 28.9237 25.9781 28.7723 25.2967C28.6966 24.6152 28.4694 24.4638 28.0909 23.8581C27.7123 23.2523 27.1065 21.8137 27.0308 21.3594C26.9551 20.9051 26.8037 20.7537 26.5765 20.678C26.3494 20.6023 25.8194 20.2994 25.5922 20.2994C25.3651 20.2994 24.6079 20.3751 24.3807 20.2237C24.1536 20.148 24.0779 19.6179 23.775 19.4665C23.4722 19.3151 22.9421 19.2394 22.9421 19.2394C22.9421 19.2394 22.2607 19.8451 22.0335 19.8451C21.7307 19.8451 21.4278 19.6179 21.2764 19.3908C21.1249 19.1636 20.7464 18.255 20.7464 18.255C20.7464 18.255 20.7463 18.255 20.5192 18.9365C20.292 19.6179 19.4592 20.6023 19.1563 20.7537C18.8534 20.9051 16.4305 22.8738 15.9005 23.3281C15.2948 23.7824 14.8405 24.3881 14.5376 24.5395C14.2347 24.691 14.0833 24.5395 14.0833 24.5395C14.0833 24.5395 13.2504 25.1453 12.7961 25.221C12.2661 25.2967 11.9632 25.1453 11.1303 24.9181C10.2975 24.7667 9.69173 24.0852 9.38886 23.7066C9.08599 23.3281 8.6317 21.9652 8.55598 21.5866C8.48026 21.208 7.57167 20.9051 7.34452 20.678C7.11737 20.5265 5.83018 19.9208 5.60303 19.6179C5.30016 19.3151 5.22445 18.7851 5.22445 18.7851C5.22445 18.7851 4.31585 18.1036 3.78584 17.4979C3.25581 16.9679 1.81721 15.2264 1.28719 14.5449C0.832886 13.9392 0.151436 12.8034 0 12.5763C0.302872 13.1063 2.04435 14.3935 3.25582 14.9992ZM32.7096 27.0382C32.7096 27.0382 32.5581 28.6282 32.331 28.8554C32.1796 29.1582 32.1038 29.2339 32.1038 29.4611C32.1038 29.6125 32.6339 30.2183 32.9367 30.6726C33.0124 30.6726 33.0882 30.6726 33.1639 30.6726C33.391 30.6726 33.7696 29.4611 33.7696 29.0825C33.7696 28.7039 32.861 27.1896 32.7096 27.0382Z" fill="#22272A"/>
<path d="M0.0756836 12.7267C0.00238431 12.7267 0.00238431 12.7267 0.0756836 12.7267C0.00238431 12.6534 0.00238431 12.7267 0.0756836 12.7267Z" fill="#22272A"/>
</svg>
