<svg width="20" height="20" viewBox="0 0 20 20" fill="none" xmlns="http://www.w3.org/2000/svg">
<path opacity="0.5" d="M17.5541 0H1.81594C0.817172 0 0 0.817172 0 1.81594V17.5541C0 18.5528 0.817172 19.37 1.81594 19.37H17.5541C18.5528 19.37 19.37 18.5528 19.37 17.5541V1.81594C19.37 0.817172 18.5528 0 17.5541 0ZM13.3169 3.02656C13.3169 2.69364 13.5893 2.42125 13.9222 2.42125H16.3434C16.6764 2.42125 16.9488 2.69364 16.9488 3.02656V5.44781C16.9488 5.78073 16.6764 6.05313 16.3434 6.05313H13.9222C13.7617 6.05281 13.608 5.98893 13.4945 5.87548C13.3811 5.76203 13.3172 5.60825 13.3169 5.44781V3.02656ZM9.685 6.05313C10.632 6.07758 11.532 6.47095 12.1931 7.14939C12.8543 7.82784 13.2243 8.73769 13.2243 9.685C13.2243 10.6323 12.8543 11.5422 12.1931 12.2206C11.532 12.899 10.632 13.2924 9.685 13.3169C8.738 13.2924 7.83801 12.899 7.17686 12.2206C6.51571 11.5422 6.1457 10.6323 6.1457 9.685C6.1457 8.73769 6.51571 7.82784 7.17686 7.14939C7.83801 6.47095 8.738 6.07758 9.685 6.05313ZM16.9488 16.3434C16.9488 16.6764 16.6764 16.9488 16.3434 16.9488H3.02656C2.86612 16.9484 2.71234 16.8846 2.5989 16.7711C2.48545 16.6577 2.42157 16.5039 2.42125 16.3434V8.47438H3.75294C3.57317 9.35396 3.59134 10.2625 3.80615 11.1342C4.02096 12.0059 4.42701 12.8189 4.99488 13.5143C5.56275 14.2096 6.27821 14.7699 7.08941 15.1545C7.90061 15.5392 8.78723 15.7385 9.685 15.7381C10.5828 15.7385 11.4694 15.5392 12.2806 15.1545C13.0918 14.7699 13.8072 14.2096 14.3751 13.5143C14.943 12.8189 15.349 12.0059 15.5639 11.1342C15.7787 10.2625 15.7968 9.35396 15.6171 8.47438H16.9488V16.3434Z" fill="white"/>
</svg>
