<svg width="24" height="20" viewBox="0 0 24 20" fill="none" xmlns="http://www.w3.org/2000/svg">
<path opacity="0.5" d="M23.8423 2.29413C23.1783 3.2817 22.3638 4.12355 21.3986 4.81969C21.4082 5.00639 21.4129 5.21742 21.4129 5.45275C21.4129 6.76035 21.2223 8.06953 20.841 9.38029C20.4597 10.6911 19.8773 11.9457 19.0938 13.1442C18.3102 14.3427 17.3769 15.4045 16.2938 16.3295C15.2106 17.2546 13.9086 17.9921 12.3878 18.5422C10.867 19.0924 9.23704 19.3674 7.49803 19.3674C4.78401 19.3674 2.28467 18.6347 0 17.1694C0.405502 17.2145 0.794412 17.237 1.16673 17.237C3.43407 17.237 5.45917 16.5387 7.24203 15.1419C6.18487 15.1226 5.2381 14.7971 4.40173 14.1656C3.56535 13.5342 2.98978 12.7273 2.67501 11.745C2.98614 11.8042 3.29321 11.8338 3.59624 11.8338C4.03242 11.8338 4.46161 11.777 4.88382 11.6632C3.75563 11.4372 2.8197 10.8753 2.07603 9.97744C1.33239 9.07958 0.960565 8.04328 0.960565 6.86853V6.80799C1.65305 7.19141 2.3917 7.39536 3.17651 7.41984C2.50817 6.97429 1.97829 6.39327 1.58685 5.6768C1.19538 4.96032 0.999648 4.18497 0.999648 3.35073C0.999648 2.4709 1.22012 1.65161 1.66106 0.892856C2.88795 2.39844 4.37458 3.60175 6.12095 4.50278C7.86735 5.40383 9.7409 5.90425 11.7416 6.00403C11.6563 5.6484 11.6135 5.27729 11.6134 4.89069C11.6134 3.54084 12.0911 2.38826 13.0464 1.43295C14.0018 0.477652 15.1545 0 16.5043 0C17.9176 0 19.108 0.514598 20.0755 1.54379C21.181 1.32483 22.2161 0.92877 23.1807 0.355624C22.8091 1.52529 22.0929 2.4276 21.0323 3.06257C22.0071 2.94672 22.9438 2.69058 23.8422 2.29413H23.8423Z" fill="white"/>
</svg>
